/* XPM */
static char *fish1[] = {
/* columns rows colors chars-per-pixel */
"128 128 16 1 ",
"  c black",
". c #2E3A4A",
"X c #424042",
"o c #464646",
"O c #B85D07",
"+ c #9C5A3C",
"@ c #F59433",
"# c #E0B12D",
"$ c #FFC20E",
"% c #B5A872",
"& c #546D8E",
"* c #FFA3B1",
"= c #D9C989",
"- c #F5E49C",
"; c #F7EDC6",
": c white",
/* pixels */
"----------------------------------------------------                  ----------------------------------;;;;====%%%%------------",
"----------------------------------------------------                  ----------------------------------;;;;====%%%%------------",
"--------------------------------------------------                      ----------------------------------;;======%%------------",
"--------------------------------------------------                      ----------------------------------;;======%%------------",
"------------------------------------------------                            ------------------------------;;;;====%%%%----------",
"------------------------------------------------                            ------------------------------;;;;====%%%%----------",
"----------------------------------------------  oo  oo  oo  oo  oo  oo  oo  --------------------------------;;======%%%%--------",
"----------------------------------------------  oo  oo  oo  oo  oo  oo  oo  --------------------------------;;======%%%%--------",
"----------------------------------------------  oo  oo  oo  oo  oo  oo  oo  --------------------------------;;;;======%%%%------",
"----------------------------------------------  oo  oo  oo  oo  oo  oo  oo  --------------------------------;;;;======%%%%------",
"----------------------------------------------          @@######@@          ----------------------------------;;========%%%%----",
"----------------------------------------------          @@######@@          ----------------------------------;;========%%%%----",
"%%%%%%%%----------------------------------------    ::::  @@##@@  ::::    ------------------------------------;;;;========%%%%%%",
"%%%%%%%%----------------------------------------    ::::  @@##@@  ::::    ------------------------------------;;;;========%%%%%%",
"======%%%%%%------------------------------------  ::  ::  @@@@@@  ::  ::  --------------------------------------;;;;==========%%",
"======%%%%%%------------------------------------  ::  ::  @@@@@@  ::  ::  --------------------------------------;;;;==========%%",
"==========%%%%%%--------------------------------    ::--  @@@@@@  ::::    ----------------------------------------;;;;==========",
"==========%%%%%%--------------------------------    ::--  @@@@@@  ::::    ----------------------------------------;;;;==========",
";;;;;;========%%%%--------------------------------      @@@@@@@@@@      --------------------------------------------;;;;;;;;====",
";;;;;;========%%%%--------------------------------      @@@@@@@@@@      --------------------------------------------;;;;;;;;====",
";;--;;==========%%%%----------------------------$$$$$$@@@@@@@@@@$$$$$$----------------------------------------------------;;;;;;",
";;--;;==========%%%%----------------------------$$$$$$@@@@@@@@@@$$$$$$----------------------------------------------------;;;;;;",
"----;;;;;;========%%%%------------------------$$$$--$$$$$$@@@@$$$$@@$$$$--------------------------------------------------------",
"----;;;;;;========%%%%------------------------$$$$--$$$$$$@@@@$$$$@@$$$$--------------------------------------------------------",
"--------;;;;========%%%%----------------------------  @@**********@@  $$$$------------------------------------------------------",
"--------;;;;========%%%%----------------------------  @@**********@@  $$$$------------------------------------------------------",
"----------;;;;========%%%%--------------------------  **          **  ----------------------------------------------------------",
"----------;;;;========%%%%--------------------------  **          **  ----------------------------------------------------------",
"------------;;;;========%%%%------------------------    **********    ----------------------------------------------------------",
"------------;;;;========%%%%------------------------    **********    ----------------------------------------------------------",
"--------------;;;;========%%%%%%----------------------              ------------------------------------------------------------",
"--------------;;;;========%%%%%%----------------------              ------------------------------------------------------------",
"----------------;;;;==========%%%%%%--------------------  @@@@@@  --------------------------------------------------------------",
"----------------;;;;==========%%%%%%--------------------  @@@@@@  --------------------------------------------------------------",
"------------------;;;;;;==========%%%%%%%%%%------------  @@@@@@  --------------------------------------------------------------",
"------------------;;;;;;==========%%%%%%%%%%------------  @@@@@@  --------------------------------------------------------------",
"----------------------;;;;================%%%%%%%%----    @@@@@@    ------------------------------------------------------------",
"----------------------;;;;================%%%%%%%%----    @@@@@@    ------------------------------------------------------------",
"------------------------;;;;;;;;========                @@@@@@@@@@                %%--------------------------------------------",
"------------------------;;;;;;;;========                @@@@@@@@@@                %%--------------------------------------------",
"------------------------------;;;;;;      @@@@@@@@@@@@@@@@@@@@@@@@@@@@@@@@@@@@@@      %%%%%%------------------------------------",
"------------------------------;;;;;;      @@@@@@@@@@@@@@@@@@@@@@@@@@@@@@@@@@@@@@      %%%%%%------------------------------------",
"------------------------------------  @@@@@@@@@@@@@@@@@@@@@@@@@@@@@@@@@@@@@@@@@@@@@@    ==%%%%%%--------------------------------",
"------------------------------------  @@@@@@@@@@@@@@@@@@@@@@@@@@@@@@@@@@@@@@@@@@@@@@    ==%%%%%%--------------------------------",
"------------------------------------  @@@@@@@@@@@@@@@@@@@@@@@@@@@@@@@@@@@@@@@@@@@@@@@@  ======%%%%  ----------------------------",
"------------------------------------  @@@@@@@@@@@@@@@@@@@@@@@@@@@@@@@@@@@@@@@@@@@@@@@@  ======%%%%  ----------------------------",
"--------------------------  --------  @@@@@@@@  @@@@@@@@@@@@@@@@@@@@@@@@@@@@@@@@@@@@@@  ========    ----------------------------",
"--------------------------  --------  @@@@@@@@  @@@@@@@@@@@@@@@@@@@@@@@@@@@@@@@@@@@@@@  ========    ----------------------------",
"--------------------------    ------  @@@@@@@@  @@@@@@@@@@@@@@@@@@@@@@@@@@@@  @@@@@@@@  ;;====      %%%%------------------------",
"--------------------------    ------  @@@@@@@@  @@@@@@@@@@@@@@@@@@@@@@@@@@@@  @@@@@@@@  ;;====      %%%%------------------------",
"--------------------------  $$  ----  @@@@@@    @@@@**@@@@@@@@@@@@@@@@**@@@@  @@@@@@@@  ;;;;;;  $$  ==%%%%%%--------------------",
"--------------------------  $$  ----  @@@@@@    @@@@**@@@@@@@@@@@@@@@@**@@@@  @@@@@@@@  ;;;;;;  $$  ==%%%%%%--------------------",
"--------------------------  $$  ----  @@@@@@    OO@@@@@@@@@@@@@@@@@@@@@@@@OO    @@@@@@  ----;;  $$  ======%%%%------------------",
"--------------------------  $$  ----  @@@@@@    OO@@@@@@@@@@@@@@@@@@@@@@@@OO    @@@@@@  ----;;  $$  ======%%%%------------------",
"--------------------------  $$    --  @@@@@@    OOOOOO@@@@@@@@@@@@@@@@OOOOOO    @@@@@@  ------  $$  ========%%%%----------------",
"--------------------------  $$    --  @@@@@@    OOOOOO@@@@@@@@@@@@@@@@OOOOOO    @@@@@@  ------  $$  ========%%%%----------------",
"--------------------------    $$  --  @@@@@@  --  @@OOOO@@@@@@@@@@@@OOOO@@  --  @@@@@@  ----    $$  ;;========%%%%--------------",
"--------------------------    $$  --  @@@@@@  --  @@OOOO@@@@@@@@@@@@OOOO@@  --  @@@@@@  ----    $$  ;;========%%%%--------------",
"----------------------------  $$  --  @@@@@@  --  @@@@@@@@@@@@@@@@@@@@@@@@  --  @@@@@@  ----  $$$$  ;;;;========%%%%------------",
"----------------------------  $$  --  @@@@@@  --  @@@@@@@@@@@@@@@@@@@@@@@@  --  @@@@@@  ----  $$$$  ;;;;========%%%%------------",
"----------------------------  $$      @@@@@@  --  OO@@@@@@@@@@@@@@@@@@@@OO  --  @@@@@@  --    $$    --;;;;========%%%%----------",
"----------------------------  $$      @@@@@@  --  OO@@@@@@@@@@@@@@@@@@@@OO  --  @@@@@@  --    $$    --;;;;========%%%%----------",
"----------------------------  $$$$    @@@@@@@@    OOOOOO@@@@@@@@@@@@OOOOOO  --  @@@@@@  --  $$$$  ------;;;;========%%%%%%------",
"----------------------------  $$$$    @@@@@@@@    OOOOOO@@@@@@@@@@@@OOOOOO  --  @@@@@@  --  $$$$  ------;;;;========%%%%%%------",
"----------------------------    $$$$  @@@@@@@@    @@@@OO@@@@@@@@@@OOOO@@@@  --  @@@@@@      $$$$  --------;;;;==========%%%%----",
"----------------------------    $$$$  @@@@@@@@    @@@@OO@@@@@@@@@@OOOO@@@@  --  @@@@@@      $$$$  --------;;;;==========%%%%----",
"------------------------------  $$$$  @@@@@@@@      @@@@@@@@@@@@@@@@@@@@  ----  @@@@@@    $$$$    ----------;;;;;;========%%%%--",
"------------------------------  $$$$  @@@@@@@@      @@@@@@@@@@@@@@@@@@@@  ----  @@@@@@    $$$$    ----------;;;;;;========%%%%--",
"%%%%%%%%----------------------    $$$$  @@@@@@  --  OOOO@@@@@@@@@@@@OOOO  ----  @@@@@@  $$$$$$  ----------------;;;;========%%%%",
"%%%%%%%%----------------------    $$$$  @@@@@@  --  OOOO@@@@@@@@@@@@OOOO  ----  @@@@@@  $$$$$$  ----------------;;;;========%%%%",
"======%%------------------------    $$  @@@@@@  --  @@OOOO@@@@@@@@OOOO@@  ----  @@@@@@  $$$$    ------------------;;;;;;========",
"======%%------------------------    $$  @@@@@@  --  @@OOOO@@@@@@@@OOOO@@  ----  @@@@@@  $$$$    ------------------;;;;;;========",
"======%%%%------------------------      @@@@@@  --  @@@@@@@@@@@@@@@@@@@@  --  @@@@@@@@  $$$$  ------------------------;;;;======",
"======%%%%------------------------      @@@@@@  --  @@@@@@@@@@@@@@@@@@@@  --  @@@@@@@@  $$$$  ------------------------;;;;======",
";;======%%%%------------------------    @@@@@@@@    @@@@@@@@@@@@@@@@@@@@    @@@@@@@@@@  $$    --------------------------;;;;;;;;",
";;======%%%%------------------------    @@@@@@@@    @@@@@@@@@@@@@@@@@@@@    @@@@@@@@@@  $$    --------------------------;;;;;;;;",
";;========%%%%--------------------------  @@@@@@..XXXXXXXXXX####XXXXXXXX..@@@@@@@@@@@@      ------------------------------------",
";;========%%%%--------------------------  @@@@@@..XXXXXXXXXX####XXXXXXXX..@@@@@@@@@@@@      ------------------------------------",
";;;;;;======%%%%%%----------------------  @@@@@@..XXXXXXXXXXXX##XXXXXXXX....@@@@@@@@  ------------------------------------------",
";;;;;;======%%%%%%----------------------  @@@@@@..XXXXXXXXXXXX##XXXXXXXX....@@@@@@@@  ------------------------------------------",
"----;;==========%%%%%%------------------  @@......&&&&&&&&&&&&&&&&&&&&&&&&....@@@@  --------------------------------------------",
"----;;==========%%%%%%------------------  @@......&&&&&&&&&&&&&&&&&&&&&&&&....@@@@  --------------------------------------------",
"----;;;;;;==========%%%%------------------  ..&&&&&&&&&&&&&&&&..&&&&&&&&&&&&..@@@@  --------------------------------------------",
"----;;;;;;==========%%%%------------------  ..&&&&&&&&&&&&&&&&..&&&&&&&&&&&&..@@@@  --------------------------------------------",
"--------;;;;==========%%%%%%------------  ....&&&&&&&&&&&&&&&&..&&&&&&&&&&&&....  ----------------------------------------------",
"--------;;;;==========%%%%%%------------  ....&&&&&&&&&&&&&&&&..&&&&&&&&&&&&....  ----------------------------------------------",
"----------;;;;;;==========%%%%%%%%------  ..&&&&&&&&&&&&&&&&..&&&&&&&&&&&&&&&&..  ----------------------------------------------",
"----------;;;;;;==========%%%%%%%%------  ..&&&&&&&&&&&&&&&&..&&&&&&&&&&&&&&&&..  ----------------------------------------------",
"--------------;;;;;;============%%%%%%  ....&&&&&&&&&&&&&&&&&&&&&&&&&&&&&&&&&&..  ----------------------------------------------",
"--------------;;;;;;============%%%%%%  ....&&&&&&&&&&&&&&&&&&&&&&&&&&&&&&&&&&..  ----------------------------------------------",
"------------------;;;;;;==============  ..&&&&&&&&&&&&&&............&&&&&&&&&&....  --------------------------------------------",
"------------------;;;;;;==============  ..&&&&&&&&&&&&&&............&&&&&&&&&&....  --------------------------------------------",
"----------------------;;;;;;;;======  ....&&&&&&&&&&&&....        ..&&&&&&&&&&&&....  ------------------------------------------",
"----------------------;;;;;;;;======  ....&&&&&&&&&&&&....        ..&&&&&&&&&&&&....  ------------------------------------------",
"--------------------------;;;;;;;;;;  ..&&&&&&&&&&&&&&..  ======  ....&&&&&&&&&&&&..  ------------------------------------------",
"--------------------------;;;;;;;;;;  ..&&&&&&&&&&&&&&..  ======  ....&&&&&&&&&&&&..  ------------------------------------------",
"------------------------------------  ..&&&&&&&&&&&&....  ========  ..&&&&&&&&&&&&..  ------------------------------------------",
"------------------------------------  ..&&&&&&&&&&&&....  ========  ..&&&&&&&&&&&&..  ------------------------------------------",
"------------------------------------  ..&&&&&&&&&&&&..  ;;;;;;;;==  ..&&&&&&&&&&&&..  ------------------------------------------",
"------------------------------------  ..&&&&&&&&&&&&..  ;;;;;;;;==  ..&&&&&&&&&&&&..  ------------------------------------------",
"------------------------------------  ..&&&&&&&&&&&&..  ------;;;;  ..&&&&&&&&&&&&..  ------------------------------------------",
"------------------------------------  ..&&&&&&&&&&&&..  ------;;;;  ..&&&&&&&&&&&&..  ------------------------------------------",
"------------------------------------  ..&&&&&&&&&&&&..  ----------  ..&&&&&&&&&&&&..  ------------------------------------------",
"------------------------------------  ..&&&&&&&&&&&&..  ----------  ..&&&&&&&&&&&&..  ------------------------------------------",
"------------------------------------  ..&&&&&&&&&&&&..  ----------  ..&&&&&&&&&&&&..  ------------------------------------------",
"------------------------------------  ..&&&&&&&&&&&&..  ----------  ..&&&&&&&&&&&&..  ------------------------------------------",
"------------------------------------  ..&&&&&&&&&&&&..  ----------  ..&&&&&&&&&&&&..  %%%%--------------------------------------",
"------------------------------------  ..&&&&&&&&&&&&..  ----------  ..&&&&&&&&&&&&..  %%%%--------------------------------------",
"------------------------------------  ..&&&&&&&&&&&&..  ----------  ..&&&&&&&&&&&&..  %%%%%%%%----------------------------------",
"------------------------------------  ..&&&&&&&&&&&&..  ----------  ..&&&&&&&&&&&&..  %%%%%%%%----------------------------------",
"------------------------------------  ..&&&&&&&&&&&&..  ----------  ..&&&&&&&&&&&&..  ======%%%%%%------------------------------",
"------------------------------------  ..&&&&&&&&&&&&..  ----------  ..&&&&&&&&&&&&..  ======%%%%%%------------------------------",
"----------------------------------  ....&&&&&&&&&&&&..  ----------  ..&&&&&&&&&&&&..  ==========%%%%----------------------------",
"----------------------------------  ....&&&&&&&&&&&&..  ----------  ..&&&&&&&&&&&&..  ==========%%%%----------------------------",
"----------------------------------  ..&&&&&&&&&&&&&&..  ----------  ..&&&&&&&&&&&&..  ;;==========%%%%--------------------------",
"----------------------------------  ..&&&&&&&&&&&&&&..  ----------  ..&&&&&&&&&&&&..  ;;==========%%%%--------------------------",
"----------------------------------  ..&&&&&&&&&&&&&&....  ------  ....&&&&&&&&&&&&..  ;;;;;;========%%%%%%----------------------",
"----------------------------------  ..&&&&&&&&&&&&&&....  ------  ....&&&&&&&&&&&&..  ;;;;;;========%%%%%%----------------------",
"----------------------------------  ..&&&&&&&&&&&&&&&&..  ------  ..&&&&&&&&&&&&&&..  ----;;;;==========%%%%--------------------",
"----------------------------------  ..&&&&&&&&&&&&&&&&..  ------  ..&&&&&&&&&&&&&&..  ----;;;;==========%%%%--------------------",
"----------------------------------  ......................------  ....................  ----;;;;;;========%%%%------------------",
"----------------------------------  ......................------  ....................  ----;;;;;;========%%%%------------------",
"--------------------------------    @@@@@@@@@@@@@@@@@@@@  ------  @@@@@@@@@@@@@@@@@@@@  --------;;;;========%%%%----------------",
"--------------------------------    @@@@@@@@@@@@@@@@@@@@  ------  @@@@@@@@@@@@@@@@@@@@  --------;;;;========%%%%----------------",
"--------------------------------  @@@@++@@@@++@@@@++@@@@@@  --  @@@@@@++@@@@++@@@@++@@@@  --------;;;;========%%%%--------------",
"--------------------------------  @@@@++@@@@++@@@@++@@@@@@  --  @@@@@@++@@@@++@@@@++@@@@  --------;;;;========%%%%--------------",
"----------------------------------    ++@@@@++@@@@++      ------      ++@@@@++@@@@++    ------------;;;;;;======%%%%------------",
"----------------------------------    ++@@@@++@@@@++      ------      ++@@@@++@@@@++    ------------;;;;;;======%%%%------------"
};
