/* XPM */
static char *result[] = {
/* columns rows colors chars-per-pixel */
"64 64 13 1 ",
"  c black",
". c #222A36",
"X c #2E3A4A",
"o c #424042",
"O c #464646",
"+ c #9C7713",
"@ c #F59433",
"# c #FFC20E",
"$ c #B5A872",
"% c #546D8E",
"& c #D9C989",
"* c #F5E49C",
"= c #F7EDC6",
/* pixels */
"**************************         *****************==&&$$******",
"*************************           *****************=&&&$******",
"************************              ***************==&&$$*****",
"*********************** O O O O O O O ****************=&&&$$****",
"*********************** O O O O O O O ****************==&&&$$***",
"***********************               *****************=&&&&$$**",
"$$$$********************  @+#####+@  ******************==&&&&$$$",
"&&&$$$******************  @+#####+@  *******************==&&&&&$",
"&&&&&$$$****************  @++###++@  ********************==&&&&&",
"===&&&&$$**************** @@+###+@@ **********************====&&",
"=*=&&&&&$$**************## @++#++@ **************************===",
"**===&&&&$$************##* @@+++@@ #****************************",
"****==&&&&$$************** @@@+@@@ ##***************************",
"*****==&&&&$$************* @@@@@@@ *****************************",
"******==&&&&$$************ @@@@@@  *****************************",
"*******==&&&&$$$***********       ******************************",
"********==&&&&&$$$********** @@@ *******************************",
"*********===&&&&&$$$$$****** @@@ *******************************",
"***********==&&&&&&&&$$$$**  @@@  ******************************",
"************====&&&&        @@@@@        $**********************",
"***************===   @@@@@@@@@@@@@@@@@@@   $$$******************",
"****************** @@@@@@@@@@@@@@@@@@@@@@@  &$$$****************",
"****************** @@@@@@@@@@@@@@@@@@@@@@@@ &&&$$ **************",
"************* **** @@@@ @@@@@@@@@@@@@@@@@@@ &&&&  **************",
"*************  *** @@@@ @@@@@@@@@@@@@@ @@@@ =&&   $$************",
"************* # ** @@@  @@@@@@@@@@@@@@ @@@@ === # &$$$**********",
"************* # ** @@@  @@@@@@@@@@@@@@  @@@ **= # &&&$$*********",
"************* #  * @@@  @@@@@@@@@@@@@@  @@@ *** # &&&&$$********",
"*************  # * @@@ * @@@@@@@@@@@@ * @@@ **  # =&&&&$$*******",
"************** # * @@@ * @@@@@@@@@@@@ * @@@ ** ## ==&&&&$$******",
"************** #   @@@ * @@@@@@@@@@@@ * @@@ *  #  *==&&&&$$*****",
"************** ##  @@@@  @@@@@@@@@@@@ * @@@ * ## ***==&&&&$$$***",
"**************  ## @@@@  @@@@@@@@@@@@ * @@@   ## ****==&&&&&$$**",
"*************** ## @@@@   @@@@@@@@@@ ** @@@  ##  *****===&&&&$$*",
"$$$$***********  ## @@@ * @@@@@@@@@@ ** @@@ ### ********==&&&&$$",
"&&&$************  # @@@ * @@@@@@@@@@ ** @@@ ##  *********===&&&&",
"&&&$$************   @@@ * @@@@@@@@@@ * @@@@ ## ************==&&&",
"=&&&$$************  @@@@  @@@@@@@@@@  @@@@@ #  *************====",
"=&&&&$$************* @@@XoXoooXXoooXoX@@@@@   ******************",
"===&&&$$$*********** @@@XoXoooXXoooXoXX@@@ *********************",
"**=&&&&&$$$********* @XXX%%%%%%%%%%%%%X@@ **********************",
"**===&&&&&$$********* XX.....%%%%XXXXXX@@ **********************",
"****==&&&&&$$$****** XX%.....%%%%%XXXXXX ***********************",
"*****===&&&&&$$$$*** X%%.....%%%%%XXXXXX ***********************",
"*******===&&&&&&$$$ XX%%%...%%%%%%%XXX%X ***********************",
"*********===&&&&&&& X%%%%%%%XXXXXX%%%%%XX **********************",
"***********====&&& XX%%%%%%XX    X%%%%%%XX *********************",
"*************===== X%%%%%%%X &&& XX%%%%%%X *********************",
"****************** X%%%%%%XX &&&& X%%%%%%X *********************",
"****************** X%%%%%%X ====& X%%%%%%X *********************",
"****************** X%%%%%%X ***== X%%%%%%X *********************",
"****************** X%%%%%%X ***** X%%%%%%X *********************",
"****************** X%%%%%%X ***** X%%%%%%X *********************",
"****************** X%%%%%%X ***** X%%%%%%X $$*******************",
"****************** X%%%%%%X ***** X%%%%%%X $$$$*****************",
"****************** X%%%%%%X ***** X%%%%%%X &&&$$$***************",
"***************** XX%%%%%%X ***** X%%%%%%X &&&&&$$**************",
"***************** X%%%%%%%X ***** X%%%%%%X =&&&&&$$*************",
"***************** X%%%%%%%XX *** XX%%%%%%X ===&&&&$$$***********",
"***************** X%%%%%%%%X *** X%%%%%%%X **==&&&&&$$**********",
"***************** XXXXXXXXXX *** XXXXXXXXXX **===&&&&$$*********",
"****************  @@@@@@@@@@  *  @@@@@@@@@@  ***==&&&&$$********",
"**************** @@@@@@@@@@@@ * @@@@@@@@@@@@ ****==&&&&$$*******",
"****************   @@@@@@@@@  *   @@@@@@@@@  *****===&&&$$******"
};
