/* XPM */
static char *fish2[] = {
/* columns rows colors chars-per-pixel */
"128 128 13 1 ",
"  c black",
". c #222A36",
"X c #2E3A4A",
"o c #424042",
"O c #464646",
"+ c #9C7713",
"@ c #F59433",
"# c #FFC20E",
"$ c #B5A872",
"% c #546D8E",
"& c #D9C989",
"* c #F5E49C",
"= c #F7EDC6",
/* pixels */
"****************************************************                  **********************************====&&&&$$$$************",
"****************************************************                  **********************************====&&&&$$$$************",
"**************************************************                      **********************************==&&&&&&$$************",
"**************************************************                      **********************************==&&&&&&$$************",
"************************************************                            ******************************====&&&&$$$$**********",
"************************************************                            ******************************====&&&&$$$$**********",
"**********************************************  OO  OO  OO  OO  OO  OO  OO  ********************************==&&&&&&$$$$********",
"**********************************************  OO  OO  OO  OO  OO  OO  OO  ********************************==&&&&&&$$$$********",
"**********************************************  OO  OO  OO  OO  OO  OO  OO  ********************************====&&&&&&$$$$******",
"**********************************************  OO  OO  OO  OO  OO  OO  OO  ********************************====&&&&&&$$$$******",
"**********************************************                              **********************************==&&&&&&&&$$$$****",
"**********************************************                              **********************************==&&&&&&&&$$$$****",
"$$$$$$$$****************************************    @@++##########++@@    ************************************====&&&&&&&&$$$$$$",
"$$$$$$$$****************************************    @@++##########++@@    ************************************====&&&&&&&&$$$$$$",
"&&&&&&$$$$$$************************************    @@++##########++@@    **************************************====&&&&&&&&&&$$",
"&&&&&&$$$$$$************************************    @@++##########++@@    **************************************====&&&&&&&&&&$$",
"&&&&&&&&&&$$$$$$********************************    @@++++######++++@@    ****************************************====&&&&&&&&&&",
"&&&&&&&&&&$$$$$$********************************    @@++++######++++@@    ****************************************====&&&&&&&&&&",
"======&&&&&&&&$$$$********************************  @@@@++######++@@@@  ********************************************========&&&&",
"======&&&&&&&&$$$$********************************  @@@@++######++@@@@  ********************************************========&&&&",
"==**==&&&&&&&&&&$$$$****************************####  @@++++##++++@@  ****************************************************======",
"==**==&&&&&&&&&&$$$$****************************####  @@++++##++++@@  ****************************************************======",
"****======&&&&&&&&$$$$************************####**  @@@@++++++@@@@  ##********************************************************",
"****======&&&&&&&&$$$$************************####**  @@@@++++++@@@@  ##********************************************************",
"********====&&&&&&&&$$$$****************************  @@@@@@++@@@@@@  ####******************************************************",
"********====&&&&&&&&$$$$****************************  @@@@@@++@@@@@@  ####******************************************************",
"**********====&&&&&&&&$$$$**************************  @@@@@@@@@@@@@@  **********************************************************",
"**********====&&&&&&&&$$$$**************************  @@@@@@@@@@@@@@  **********************************************************",
"************====&&&&&&&&$$$$************************  @@@@@@@@@@@@    **********************************************************",
"************====&&&&&&&&$$$$************************  @@@@@@@@@@@@    **********************************************************",
"**************====&&&&&&&&$$$$$$**********************              ************************************************************",
"**************====&&&&&&&&$$$$$$**********************              ************************************************************",
"****************====&&&&&&&&&&$$$$$$********************  @@@@@@  **************************************************************",
"****************====&&&&&&&&&&$$$$$$********************  @@@@@@  **************************************************************",
"******************======&&&&&&&&&&$$$$$$$$$$************  @@@@@@  **************************************************************",
"******************======&&&&&&&&&&$$$$$$$$$$************  @@@@@@  **************************************************************",
"**********************====&&&&&&&&&&&&&&&&$$$$$$$$****    @@@@@@    ************************************************************",
"**********************====&&&&&&&&&&&&&&&&$$$$$$$$****    @@@@@@    ************************************************************",
"************************========&&&&&&&&                @@@@@@@@@@                $$********************************************",
"************************========&&&&&&&&                @@@@@@@@@@                $$********************************************",
"******************************======      @@@@@@@@@@@@@@@@@@@@@@@@@@@@@@@@@@@@@@      $$$$$$************************************",
"******************************======      @@@@@@@@@@@@@@@@@@@@@@@@@@@@@@@@@@@@@@      $$$$$$************************************",
"************************************  @@@@@@@@@@@@@@@@@@@@@@@@@@@@@@@@@@@@@@@@@@@@@@    &&$$$$$$********************************",
"************************************  @@@@@@@@@@@@@@@@@@@@@@@@@@@@@@@@@@@@@@@@@@@@@@    &&$$$$$$********************************",
"************************************  @@@@@@@@@@@@@@@@@@@@@@@@@@@@@@@@@@@@@@@@@@@@@@@@  &&&&&&$$$$  ****************************",
"************************************  @@@@@@@@@@@@@@@@@@@@@@@@@@@@@@@@@@@@@@@@@@@@@@@@  &&&&&&$$$$  ****************************",
"**************************  ********  @@@@@@@@  @@@@@@@@@@@@@@@@@@@@@@@@@@@@@@@@@@@@@@  &&&&&&&&    ****************************",
"**************************  ********  @@@@@@@@  @@@@@@@@@@@@@@@@@@@@@@@@@@@@@@@@@@@@@@  &&&&&&&&    ****************************",
"**************************    ******  @@@@@@@@  @@@@@@@@@@@@@@@@@@@@@@@@@@@@  @@@@@@@@  ==&&&&      $$$$************************",
"**************************    ******  @@@@@@@@  @@@@@@@@@@@@@@@@@@@@@@@@@@@@  @@@@@@@@  ==&&&&      $$$$************************",
"**************************  ##  ****  @@@@@@    @@@@@@@@@@@@@@@@@@@@@@@@@@@@  @@@@@@@@  ======  ##  &&$$$$$$********************",
"**************************  ##  ****  @@@@@@    @@@@@@@@@@@@@@@@@@@@@@@@@@@@  @@@@@@@@  ======  ##  &&$$$$$$********************",
"**************************  ##  ****  @@@@@@    @@@@@@@@@@@@@@@@@@@@@@@@@@@@    @@@@@@  ****==  ##  &&&&&&$$$$******************",
"**************************  ##  ****  @@@@@@    @@@@@@@@@@@@@@@@@@@@@@@@@@@@    @@@@@@  ****==  ##  &&&&&&$$$$******************",
"**************************  ##    **  @@@@@@    @@@@@@@@@@@@@@@@@@@@@@@@@@@@    @@@@@@  ******  ##  &&&&&&&&$$$$****************",
"**************************  ##    **  @@@@@@    @@@@@@@@@@@@@@@@@@@@@@@@@@@@    @@@@@@  ******  ##  &&&&&&&&$$$$****************",
"**************************    ##  **  @@@@@@  **  @@@@@@@@@@@@@@@@@@@@@@@@  **  @@@@@@  ****    ##  ==&&&&&&&&$$$$**************",
"**************************    ##  **  @@@@@@  **  @@@@@@@@@@@@@@@@@@@@@@@@  **  @@@@@@  ****    ##  ==&&&&&&&&$$$$**************",
"****************************  ##  **  @@@@@@  **  @@@@@@@@@@@@@@@@@@@@@@@@  **  @@@@@@  ****  ####  ====&&&&&&&&$$$$************",
"****************************  ##  **  @@@@@@  **  @@@@@@@@@@@@@@@@@@@@@@@@  **  @@@@@@  ****  ####  ====&&&&&&&&$$$$************",
"****************************  ##      @@@@@@  **  @@@@@@@@@@@@@@@@@@@@@@@@  **  @@@@@@  **    ##    **====&&&&&&&&$$$$**********",
"****************************  ##      @@@@@@  **  @@@@@@@@@@@@@@@@@@@@@@@@  **  @@@@@@  **    ##    **====&&&&&&&&$$$$**********",
"****************************  ####    @@@@@@@@    @@@@@@@@@@@@@@@@@@@@@@@@  **  @@@@@@  **  ####  ******====&&&&&&&&$$$$$$******",
"****************************  ####    @@@@@@@@    @@@@@@@@@@@@@@@@@@@@@@@@  **  @@@@@@  **  ####  ******====&&&&&&&&$$$$$$******",
"****************************    ####  @@@@@@@@    @@@@@@@@@@@@@@@@@@@@@@@@  **  @@@@@@      ####  ********====&&&&&&&&&&$$$$****",
"****************************    ####  @@@@@@@@    @@@@@@@@@@@@@@@@@@@@@@@@  **  @@@@@@      ####  ********====&&&&&&&&&&$$$$****",
"******************************  ####  @@@@@@@@      @@@@@@@@@@@@@@@@@@@@  ****  @@@@@@    ####    **********======&&&&&&&&$$$$**",
"******************************  ####  @@@@@@@@      @@@@@@@@@@@@@@@@@@@@  ****  @@@@@@    ####    **********======&&&&&&&&$$$$**",
"$$$$$$$$**********************    ####  @@@@@@  **  @@@@@@@@@@@@@@@@@@@@  ****  @@@@@@  ######  ****************====&&&&&&&&$$$$",
"$$$$$$$$**********************    ####  @@@@@@  **  @@@@@@@@@@@@@@@@@@@@  ****  @@@@@@  ######  ****************====&&&&&&&&$$$$",
"&&&&&&$$************************    ##  @@@@@@  **  @@@@@@@@@@@@@@@@@@@@  ****  @@@@@@  ####    ******************======&&&&&&&&",
"&&&&&&$$************************    ##  @@@@@@  **  @@@@@@@@@@@@@@@@@@@@  ****  @@@@@@  ####    ******************======&&&&&&&&",
"&&&&&&$$$$************************      @@@@@@  **  @@@@@@@@@@@@@@@@@@@@  **  @@@@@@@@  ####  ************************====&&&&&&",
"&&&&&&$$$$************************      @@@@@@  **  @@@@@@@@@@@@@@@@@@@@  **  @@@@@@@@  ####  ************************====&&&&&&",
"==&&&&&&$$$$************************    @@@@@@@@    @@@@@@@@@@@@@@@@@@@@    @@@@@@@@@@  ##    **************************========",
"==&&&&&&$$$$************************    @@@@@@@@    @@@@@@@@@@@@@@@@@@@@    @@@@@@@@@@  ##    **************************========",
"==&&&&&&&&$$$$**************************  @@@@@@XXooXXooooooXXXXooooooXXooXX@@@@@@@@@@      ************************************",
"==&&&&&&&&$$$$**************************  @@@@@@XXooXXooooooXXXXooooooXXooXX@@@@@@@@@@      ************************************",
"======&&&&&&$$$$$$**********************  @@@@@@XXooXXooooooXXXXooooooXXooXXXX@@@@@@  ******************************************",
"======&&&&&&$$$$$$**********************  @@@@@@XXooXXooooooXXXXooooooXXooXXXX@@@@@@  ******************************************",
"****==&&&&&&&&&&$$$$$$******************  @@XXXXXX%%%%%%%%%%%%%%%%%%%%%%%%%%XX@@@@  ********************************************",
"****==&&&&&&&&&&$$$$$$******************  @@XXXXXX%%%%%%%%%%%%%%%%%%%%%%%%%%XX@@@@  ********************************************",
"****======&&&&&&&&&&$$$$******************  XXXX..........%%%%%%%%XXXXXXXXXXXX@@@@  ********************************************",
"****======&&&&&&&&&&$$$$******************  XXXX..........%%%%%%%%XXXXXXXXXXXX@@@@  ********************************************",
"********====&&&&&&&&&&$$$$$$************  XXXX%%..........%%%%%%%%%%XXXXXXXXXXXX  **********************************************",
"********====&&&&&&&&&&$$$$$$************  XXXX%%..........%%%%%%%%%%XXXXXXXXXXXX  **********************************************",
"**********======&&&&&&&&&&$$$$$$$$******  XX%%%%..........%%%%%%%%%%XXXXXXXXXXXX  **********************************************",
"**********======&&&&&&&&&&$$$$$$$$******  XX%%%%..........%%%%%%%%%%XXXXXXXXXXXX  **********************************************",
"**************======&&&&&&&&&&&&$$$$$$  XXXX%%%%%%......%%%%%%%%%%%%%%XXXXXX%%XX  **********************************************",
"**************======&&&&&&&&&&&&$$$$$$  XXXX%%%%%%......%%%%%%%%%%%%%%XXXXXX%%XX  **********************************************",
"******************======&&&&&&&&&&&&&&  XX%%%%%%%%%%%%%%XXXXXXXXXXXX%%%%%%%%%%XXXX  ********************************************",
"******************======&&&&&&&&&&&&&&  XX%%%%%%%%%%%%%%XXXXXXXXXXXX%%%%%%%%%%XXXX  ********************************************",
"**********************========&&&&&&  XXXX%%%%%%%%%%%%XXXX        XX%%%%%%%%%%%%XXXX  ******************************************",
"**********************========&&&&&&  XXXX%%%%%%%%%%%%XXXX        XX%%%%%%%%%%%%XXXX  ******************************************",
"**************************==========  XX%%%%%%%%%%%%%%XX  &&&&&&  XXXX%%%%%%%%%%%%XX  ******************************************",
"**************************==========  XX%%%%%%%%%%%%%%XX  &&&&&&  XXXX%%%%%%%%%%%%XX  ******************************************",
"************************************  XX%%%%%%%%%%%%XXXX  &&&&&&&&  XX%%%%%%%%%%%%XX  ******************************************",
"************************************  XX%%%%%%%%%%%%XXXX  &&&&&&&&  XX%%%%%%%%%%%%XX  ******************************************",
"************************************  XX%%%%%%%%%%%%XX  ========&&  XX%%%%%%%%%%%%XX  ******************************************",
"************************************  XX%%%%%%%%%%%%XX  ========&&  XX%%%%%%%%%%%%XX  ******************************************",
"************************************  XX%%%%%%%%%%%%XX  ******====  XX%%%%%%%%%%%%XX  ******************************************",
"************************************  XX%%%%%%%%%%%%XX  ******====  XX%%%%%%%%%%%%XX  ******************************************",
"************************************  XX%%%%%%%%%%%%XX  **********  XX%%%%%%%%%%%%XX  ******************************************",
"************************************  XX%%%%%%%%%%%%XX  **********  XX%%%%%%%%%%%%XX  ******************************************",
"************************************  XX%%%%%%%%%%%%XX  **********  XX%%%%%%%%%%%%XX  ******************************************",
"************************************  XX%%%%%%%%%%%%XX  **********  XX%%%%%%%%%%%%XX  ******************************************",
"************************************  XX%%%%%%%%%%%%XX  **********  XX%%%%%%%%%%%%XX  $$$$**************************************",
"************************************  XX%%%%%%%%%%%%XX  **********  XX%%%%%%%%%%%%XX  $$$$**************************************",
"************************************  XX%%%%%%%%%%%%XX  **********  XX%%%%%%%%%%%%XX  $$$$$$$$**********************************",
"************************************  XX%%%%%%%%%%%%XX  **********  XX%%%%%%%%%%%%XX  $$$$$$$$**********************************",
"************************************  XX%%%%%%%%%%%%XX  **********  XX%%%%%%%%%%%%XX  &&&&&&$$$$$$******************************",
"************************************  XX%%%%%%%%%%%%XX  **********  XX%%%%%%%%%%%%XX  &&&&&&$$$$$$******************************",
"**********************************  XXXX%%%%%%%%%%%%XX  **********  XX%%%%%%%%%%%%XX  &&&&&&&&&&$$$$****************************",
"**********************************  XXXX%%%%%%%%%%%%XX  **********  XX%%%%%%%%%%%%XX  &&&&&&&&&&$$$$****************************",
"**********************************  XX%%%%%%%%%%%%%%XX  **********  XX%%%%%%%%%%%%XX  ==&&&&&&&&&&$$$$**************************",
"**********************************  XX%%%%%%%%%%%%%%XX  **********  XX%%%%%%%%%%%%XX  ==&&&&&&&&&&$$$$**************************",
"**********************************  XX%%%%%%%%%%%%%%XXXX  ******  XXXX%%%%%%%%%%%%XX  ======&&&&&&&&$$$$$$**********************",
"**********************************  XX%%%%%%%%%%%%%%XXXX  ******  XXXX%%%%%%%%%%%%XX  ======&&&&&&&&$$$$$$**********************",
"**********************************  XX%%%%%%%%%%%%%%%%XX  ******  XX%%%%%%%%%%%%%%XX  ****====&&&&&&&&&&$$$$********************",
"**********************************  XX%%%%%%%%%%%%%%%%XX  ******  XX%%%%%%%%%%%%%%XX  ****====&&&&&&&&&&$$$$********************",
"**********************************  XXXXXXXXXXXXXXXXXXXX  ******  XXXXXXXXXXXXXXXXXXXX  ****======&&&&&&&&$$$$******************",
"**********************************  XXXXXXXXXXXXXXXXXXXX  ******  XXXXXXXXXXXXXXXXXXXX  ****======&&&&&&&&$$$$******************",
"********************************    @@@@@@@@@@@@@@@@@@@@    **    @@@@@@@@@@@@@@@@@@@@    ******====&&&&&&&&$$$$****************",
"********************************    @@@@@@@@@@@@@@@@@@@@    **    @@@@@@@@@@@@@@@@@@@@    ******====&&&&&&&&$$$$****************",
"********************************  @@@@@@@@@@@@@@@@@@@@@@@@  **  @@@@@@@@@@@@@@@@@@@@@@@@  ********====&&&&&&&&$$$$**************",
"********************************  @@@@@@@@@@@@@@@@@@@@@@@@  **  @@@@@@@@@@@@@@@@@@@@@@@@  ********====&&&&&&&&$$$$**************",
"********************************      @@@@@@@@@@@@@@@@@@    **      @@@@@@@@@@@@@@@@@@    **********======&&&&&&$$$$************",
"********************************      @@@@@@@@@@@@@@@@@@    **      @@@@@@@@@@@@@@@@@@    **********======&&&&&&$$$$************"
};
