/* XPM */
static char *d020050ba52341ebdec6229d080781e2w0nJlwmmu5FWQGqJ[] = {
/* columns rows colors chars-per-pixel */
"64 64 15 1 ",
"  c black",
". c #464646",
"X c #6B676B",
"o c #ED1C24",
"O c #B0763F",
"+ c #FF7E00",
"@ c #FFC20E",
"# c #B5A872",
"$ c #CF8842",
"% c #B4B4B4",
"& c #D9C989",
"* c #F5E49C",
"= c gray77",
"- c #F7EDC6",
"; c white",
/* pixels */
"****************************************************--&&##******",
"*****************************************************-&&&#******",
"*****************************************************--&&##*****",
"******************************************************-&&&##****",
"******************************************************--&&&##***",
"*******************************************************-&&&&##**",
"####***************************************************--&&&&###",
"&&&###**************************************************--&&&&&#",
"&&&&&###*************************************************--&&&&&",
"---&&&&##*************************************************----&&",
"-*-&&&&&##***************************************************---",
"**---&&&&##*****************************************************",
"****--&&&&##****************************************************",
"*****--&&&&##***************************************************",
"******--&&&&##**************************************************",
"*******--&&&&###************************************************",
"********--&&&&&###**********************************************",
"*********---&&&&&#####******************************************",
"***********--&&&&&&&&####***************************************",
"************----&&&&&&&&####******########**********************",
"***************----&&&&&&&&########&&&&&&#####******************",
"******************-----&&&&&&$&&&&&&&&&&&&&&&###****************",
"**********************----&&&$&&&&&&&---&&&&&&&###**************",
"*************************----$--------*-----&&&&&#**************",
"********************* $$O$O$O$O$$ *********--&&&&###************",
"*********************  $O$O$O;O$  **********---&&&&###**********",
"*********************  $O$O$O;O$  ************--&&&&&##*********",
"*********************             *******+*****---&&&&##********",
"********************* ooooooooooo ******+@+******--&&&&##*******",
"********************* oooo;;;oooo *****+@@+*******--&&&&##******",
"********************* ooo;;;;;ooo *****.X.X********--&&&&##*****",
"********************* ;;;;;@;;;;; ****.X.X.*********--&&&&###***",
"********************* ;@;;;@;;;@; *** %%%%%   ....... -&&&&&##**",
"********************* ;;@;@@@;@;; *** %%%%% * %%%%%%% ---&&&&##*",
"####***************** ;;@@@@@@@;; *** %%%%= ** %%%%% ***--&&&&##",
"&&&#***************** ooooooooooo *** %%%%= ***     *****---&&&&",
"&&&##**************** ;;;;;;;;;;; *** %%=== ***************--&&&",
"-&&&##***************             ****     *****************----",
"-&&&&##*********************************************************",
"---&&&###*******************************************************",
"**-&&&&&###*****************************************************",
"**---&&&&&##****************************************************",
"****--&&&&&###**************************************************",
"*****---&&&&&####***********************************************",
"*******---&&&&&&########****************************************",
"*********---&&&&&&&&&&#######***********************************",
"***********----&&&&&&&&&&&&&#######*****************************",
"*************--------&&&&&&&&&&&&&##****************************",
"********************--------&&&&&&&###**************************",
"***************************-----&&&&&###************************",
"*******************************---&&&&&##***********************",
"*********************************---&&&&##**********************",
"***********************************--&&&&#**********************",
"************************************--&&&####*******************",
"*************************************--&&&&####*****************",
"**************************************--&&&&&&###***************",
"***************************************--&&&&&&&##**************",
"****************************************----&&&&&##*************",
"*******************************************---&&&&###***********",
"*********************************************--&&&&&##**********",
"**********************************************---&&&&##*********",
"************************************************--&&&&##********",
"*************************************************--&&&&##*******",
"**************************************************---&&&##******"
};
