/* XPM */
static char *kolek[] = {
/* columns rows colors chars-per-pixel */
"128 128 15 1 ",
"  c black",
". c #464646",
"X c #6B676B",
"o c #ED1C24",
"O c #B0763F",
"+ c #FF7E00",
"@ c #FFC20E",
"# c #B5A872",
"$ c #CF8842",
"% c #B4B4B4",
"& c #D9C989",
"* c #F5E49C",
"= c gray77",
"- c #F7EDC6",
"; c white",
/* pixels */
"********************************************************************************************************----&&&&####************",
"********************************************************************************************************----&&&&####************",
"**********************************************************************************************************--&&&&&&##************",
"**********************************************************************************************************--&&&&&&##************",
"**********************************************************************************************************----&&&&####**********",
"**********************************************************************************************************----&&&&####**********",
"************************************************************************************************************--&&&&&&####********",
"************************************************************************************************************--&&&&&&####********",
"************************************************************************************************************----&&&&&&####******",
"************************************************************************************************************----&&&&&&####******",
"**************************************************************************************************************--&&&&&&&&####****",
"**************************************************************************************************************--&&&&&&&&####****",
"########******************************************************************************************************----&&&&&&&&######",
"########******************************************************************************************************----&&&&&&&&######",
"&&&&&&######****************************************************************************************************----&&&&&&&&&&##",
"&&&&&&######****************************************************************************************************----&&&&&&&&&&##",
"&&&&&&&&&&######**************************************************************************************************----&&&&&&&&&&",
"&&&&&&&&&&######**************************************************************************************************----&&&&&&&&&&",
"------&&&&&&&&####**************************************************************************************************--------&&&&",
"------&&&&&&&&####**************************************************************************************************--------&&&&",
"--**--&&&&&&&&&&####******************************************************************************************************------",
"--**--&&&&&&&&&&####******************************************************************************************************------",
"****------&&&&&&&&####**********************************************************************************************************",
"****------&&&&&&&&####**********************************************************************************************************",
"********----&&&&&&&&####********************************************************************************************************",
"********----&&&&&&&&####********************************************************************************************************",
"**********----&&&&&&&&####******************************************************************************************************",
"**********----&&&&&&&&####******************************************************************************************************",
"************----&&&&&&&&####****************************************************************************************************",
"************----&&&&&&&&####****************************************************************************************************",
"**************----&&&&&&&&######************************************************************************************************",
"**************----&&&&&&&&######************************************************************************************************",
"****************----&&&&&&&&&&######********************************************************************************************",
"****************----&&&&&&&&&&######********************************************************************************************",
"******************------&&&&&&&&&&##########************************************************************************************",
"******************------&&&&&&&&&&##########************************************************************************************",
"**********************----&&&&&&&&&&&&&&&&########******************************************************************************",
"**********************----&&&&&&&&&&&&&&&&########******************************************************************************",
"************************--------&&&&&&&&&&&&&&&&########************################********************************************",
"************************--------&&&&&&&&&&&&&&&&########************################********************************************",
"******************************--------&&&&&&&&&&&&&&&&################&&&&&&&&&&&&##########************************************",
"******************************--------&&&&&&&&&&&&&&&&################&&&&&&&&&&&&##########************************************",
"************************************----------&&&&&&&&&&&&$$&&&&&&&&&&&&&&&&&&&&&&&&&&&&&&######********************************",
"************************************----------&&&&&&&&&&&&$$&&&&&&&&&&&&&&&&&&&&&&&&&&&&&&######********************************",
"********************************************--------&&&&&&$$&&&&&&&&&&&&&&------&&&&&&&&&&&&&&######****************************",
"********************************************--------&&&&&&$$&&&&&&&&&&&&&&------&&&&&&&&&&&&&&######****************************",
"**************************************************--------$$----------------**----------&&&&&&&&&&##****************************",
"**************************************************--------$$----------------**----------&&&&&&&&&&##****************************",
"******************************************  $$$$OO$$OO$$OO$$OO$$$$  ******************----&&&&&&&&######************************",
"******************************************  $$$$OO$$OO$$OO$$OO$$$$  ******************----&&&&&&&&######************************",
"******************************************    $$OO$$OO$$OO;;OO$$    ********************------&&&&&&&&######********************",
"******************************************    $$OO$$OO$$OO;;OO$$    ********************------&&&&&&&&######********************",
"******************************************    $$OO$$OO$$OO;;OO$$    ************************----&&&&&&&&&&####******************",
"******************************************    $$OO$$OO$$OO;;OO$$    ************************----&&&&&&&&&&####******************",
"******************************************                          **************++**********------&&&&&&&&####****************",
"******************************************                          **************++**********------&&&&&&&&####****************",
"******************************************  oooooooooooooooooooooo  ************++@@++************----&&&&&&&&####**************",
"******************************************  oooooooooooooooooooooo  ************++@@++************----&&&&&&&&####**************",
"******************************************  oooooooo;;;;;;oooooooo  **********++@@@@++**************----&&&&&&&&####************",
"******************************************  oooooooo;;;;;;oooooooo  **********++@@@@++**************----&&&&&&&&####************",
"******************************************  oooooo;;;;;;;;;;oooooo  **********..XX..XX****************----&&&&&&&&####**********",
"******************************************  oooooo;;;;;;;;;;oooooo  **********..XX..XX****************----&&&&&&&&####**********",
"******************************************  ;;;;;;;;;;@@;;;;;;;;;;  ********..XX..XX..******************----&&&&&&&&######******",
"******************************************  ;;;;;;;;;;@@;;;;;;;;;;  ********..XX..XX..******************----&&&&&&&&######******",
"******************************************  ;;@@;;;;;;@@;;;;;;@@;;  ******  %%%%%%%%%%      ..............  --&&&&&&&&&&####****",
"******************************************  ;;@@;;;;;;@@;;;;;;@@;;  ******  %%%%%%%%%%      ..............  --&&&&&&&&&&####****",
"******************************************  ;;;;@@;;@@@@@@;;@@;;;;  ******  %%%%%%%%%%  **  %%%%%%%%%%%%%%  ------&&&&&&&&####**",
"******************************************  ;;;;@@;;@@@@@@;;@@;;;;  ******  %%%%%%%%%%  **  %%%%%%%%%%%%%%  ------&&&&&&&&####**",
"########**********************************  ;;;;@@@@@@@@@@@@@@;;;;  ******  %%%%%%%%==  ****  %%%%%%%%%%  ******----&&&&&&&&####",
"########**********************************  ;;;;@@@@@@@@@@@@@@;;;;  ******  %%%%%%%%==  ****  %%%%%%%%%%  ******----&&&&&&&&####",
"&&&&&&##**********************************  oooooooooooooooooooooo  ******  %%%%%%%%==  ******          **********------&&&&&&&&",
"&&&&&&##**********************************  oooooooooooooooooooooo  ******  %%%%%%%%==  ******          **********------&&&&&&&&",
"&&&&&&####********************************  ;;;;;;;;;;;;;;;;;;;;;;  ******  %%%%======  ******************************----&&&&&&",
"&&&&&&####********************************  ;;;;;;;;;;;;;;;;;;;;;;  ******  %%%%======  ******************************----&&&&&&",
"--&&&&&&####******************************                          ********          **********************************--------",
"--&&&&&&####******************************                          ********          **********************************--------",
"--&&&&&&&&####******************************************************************************************************************",
"--&&&&&&&&####******************************************************************************************************************",
"------&&&&&&######**************************************************************************************************************",
"------&&&&&&######**************************************************************************************************************",
"****--&&&&&&&&&&######**********************************************************************************************************",
"****--&&&&&&&&&&######**********************************************************************************************************",
"****------&&&&&&&&&&####********************************************************************************************************",
"****------&&&&&&&&&&####********************************************************************************************************",
"********----&&&&&&&&&&######****************************************************************************************************",
"********----&&&&&&&&&&######****************************************************************************************************",
"**********------&&&&&&&&&&########**********************************************************************************************",
"**********------&&&&&&&&&&########**********************************************************************************************",
"**************------&&&&&&&&&&&&################********************************************************************************",
"**************------&&&&&&&&&&&&################********************************************************************************",
"******************------&&&&&&&&&&&&&&&&&&&&##############**********************************************************************",
"******************------&&&&&&&&&&&&&&&&&&&&##############**********************************************************************",
"**********************--------&&&&&&&&&&&&&&&&&&&&&&&&&&##############**********************************************************",
"**********************--------&&&&&&&&&&&&&&&&&&&&&&&&&&##############**********************************************************",
"**************************----------------&&&&&&&&&&&&&&&&&&&&&&&&&&####********************************************************",
"**************************----------------&&&&&&&&&&&&&&&&&&&&&&&&&&####********************************************************",
"****************************************----------------&&&&&&&&&&&&&&######****************************************************",
"****************************************----------------&&&&&&&&&&&&&&######****************************************************",
"******************************************************----------&&&&&&&&&&######************************************************",
"******************************************************----------&&&&&&&&&&######************************************************",
"**************************************************************------&&&&&&&&&&####**********************************************",
"**************************************************************------&&&&&&&&&&####**********************************************",
"******************************************************************------&&&&&&&&####********************************************",
"******************************************************************------&&&&&&&&####********************************************",
"**********************************************************************----&&&&&&&&##********************************************",
"**********************************************************************----&&&&&&&&##********************************************",
"************************************************************************----&&&&&&########**************************************",
"************************************************************************----&&&&&&########**************************************",
"**************************************************************************----&&&&&&&&########**********************************",
"**************************************************************************----&&&&&&&&########**********************************",
"****************************************************************************----&&&&&&&&&&&&######******************************",
"****************************************************************************----&&&&&&&&&&&&######******************************",
"******************************************************************************----&&&&&&&&&&&&&&####****************************",
"******************************************************************************----&&&&&&&&&&&&&&####****************************",
"********************************************************************************--------&&&&&&&&&&####**************************",
"********************************************************************************--------&&&&&&&&&&####**************************",
"**************************************************************************************------&&&&&&&&######**********************",
"**************************************************************************************------&&&&&&&&######**********************",
"******************************************************************************************----&&&&&&&&&&####********************",
"******************************************************************************************----&&&&&&&&&&####********************",
"********************************************************************************************------&&&&&&&&####******************",
"********************************************************************************************------&&&&&&&&####******************",
"************************************************************************************************----&&&&&&&&####****************",
"************************************************************************************************----&&&&&&&&####****************",
"**************************************************************************************************----&&&&&&&&####**************",
"**************************************************************************************************----&&&&&&&&####**************",
"****************************************************************************************************------&&&&&&####************",
"****************************************************************************************************------&&&&&&####************"
};
