/* XPM */
static char *result[] = {
/* columns rows colors chars-per-pixel */
"64 64 8 1 ",
"  c black",
". c #ED1C24",
"X c #FFC20E",
"o c #B5A872",
"O c #D9C989",
"+ c #F5E49C",
"@ c #F7EDC6",
"# c white",
/* pixels */
"++++++++++++++++++++++++++++++++++++++++++++++++++++@@OOoo++++++",
"+++++++++++++++++++++++++++++++++++++++++++++++++++++@OOOo++++++",
"+++++++++++++++++++++++++++++++++++++++++++++++++++++@@OOoo+++++",
"++++++++++++++++++++++++++++++++++++++++++++++++++++++@OOOoo++++",
"++++++++++++++++++++++++++++++++++++++++++++++++++++++@@OOOoo+++",
"+++++++++++                             +++++++++++++++@OOOOoo++",
"oooo++++++ ############## .............. ++++++++++++++@@OOOOooo",
"OOOooo+++ ############### ............... ++++++++++++++@@OOOOOo",
"OOOOOooo ################ ................ ++++++++++++++@@OOOOO",
"@@@OOOO   ############### ................  ++++++++++++++@@@@OO",
"@+@OOO ..  ############## ...............  # ++++++++++++++++@@@",
"++@@@ ....  ############# ..............  ### ++++++++++++++++++",
"++++ ......  ############ .............  ##### +++++++++++++++++",
"++++ .......  ########### ............  ###### +++++++++++++++++",
"++++ ........  ########## ...........  ####### +++++++++++++++++",
"++++ .........  ######### ..........  ######## +++++++++++++++++",
"++++ ..........  ######## .........  ######### +++++++++++++++++",
"++++ ...........  ####### ........  ########## +++++++++++++++++",
"++++ ............  ###### .......  ########### +++++++++++++++++",
"++++ .............  ##### ......  ############ +++++++++++++++++",
"++++ ..............  #### .....  ############# +++++++++++++++++",
"++++ ...............  ### ....  ############## o++++++++++++++++",
"++++ ................  ## ...  ############### ooo++++++++++++++",
"++++ .................  # ..  ################ OOo++++++++++++++",
"++++ ..................   .  ################# OOooo++++++++++++",
"++++ ...................    ################## OOOOooo++++++++++",
"++++                     #                     @OOOOOoo+++++++++",
"++++ ##################    ................... @@@OOOOoo++++++++",
"++++ #################  .   .................. ++@@OOOOoo+++++++",
"++++ ################  .. #  ................. +++@@OOOOoo++++++",
"++++ ###############  ... ##  ................ ++++@@OOOOoo+++++",
"++++ ##############  .... ###  ............... +++++@@OOOOooo+++",
"++++ #############  ..... ####  .............. ++++++@@OOOOOoo++",
"++++ ############  ...... #####  ............. +++++++@@@OOOOoo+",
"oooo ###########  ....... ######  ............ +++++++++@@OOOOoo",
"OOOo ##########  ........ #######  ........... ++++++++++@@@OOOO",
"OOOo #########  ......... ########  .......... ++++++++++++@@OOO",
"@OOO ########  .......... #########  .........  ++++++++++++@@@@",
"@OOO #######  ........... ##########  ........ X +++++++++++++++",
"@@@O ######  ............ ###########  ....... XX ++++++++++++++",
"++@O #####  ............. ############  ...... XXX +++++++++++++",
"++@@@ ###  .............. #############  .... XXXXX ++++++++++++",
"++++@@ #  ............... ##############  .. XXXXXXX +++++++++++",
"+++++@@  ................ ###############   ##XXXXXX +++++++++++",
"+++++++@ ................ ################ ####XXXX ++++++++++++",
"+++++++++ ............... ############### ######XX +++++++++++++",
"++++++++++                               ######## ++++++++++++++",
"+++++++++++++@@@@@@@@OOO XX#######XXXXXXXX###### +++++++++++++++",
"++++++++++++++++++++@@@ XXXX#######XXXXXXXX#### ++++++++++++++++",
"++++++++++++++++++++++ XXXXXX#######XXXXXXXX## +++++++++++++++++",
"++++++++++++++++++++++ XXXXXXX#######XXXXXXXX ++++++++++++++++++",
"+++++++++++++++++++++++ XXXXXXX#######XXXXXX +++++++++++++++++++",
"++++++++++++++++++++++++ XXXXXXX#######XXXX ++++++++++++++++++++",
"+++++++++++++++++++++++++ XXXXXXX#######XX oo+++++++++++++++++++",
"++++++++++++++++++++++++++ XXXXXXX####### Ooooo+++++++++++++++++",
"+++++++++++++++++++++++++++ XXXXXXX##### OOOOOooo+++++++++++++++",
"++++++++++++++++++++++++++++ XXXXXXX### @OOOOOOOoo++++++++++++++",
"+++++++++++++++++++++++++++++ XXXXXXX# +@@@@OOOOOoo+++++++++++++",
"++++++++++++++++++++++++++++++ XXXXXX +++++@@@OOOOooo+++++++++++",
"+++++++++++++++++++++++++++++++ XXXX ++++++++@@OOOOOoo++++++++++",
"++++++++++++++++++++++++++++++++ XX ++++++++++@@@OOOOoo+++++++++",
"+++++++++++++++++++++++++++++++++  +++++++++++++@@OOOOoo++++++++",
"+++++++++++++++++++++++++++++++++++++++++++++++++@@OOOOoo+++++++",
"++++++++++++++++++++++++++++++++++++++++++++++++++@@@OOOoo++++++"
};
