/* XPM */
static char *murs[] = {
/* columns rows colors chars-per-pixel */
"128 128 8 1 ",
"  c black",
". c #ED1C24",
"X c #FFC20E",
"o c #B5A872",
"O c #D9C989",
"+ c #F5E49C",
"@ c #F7EDC6",
"# c white",
/* pixels */
"++++++++++++++++++++++++++++++++++++++++++++++++++++++++++++++++++++++++++++++++++++++++++++++++++++++++@@@@OOOOoooo++++++++++++",
"++++++++++++++++++++++++++++++++++++++++++++++++++++++++++++++++++++++++++++++++++++++++++++++++++++++++@@@@OOOOoooo++++++++++++",
"++++++++++++++++++++++++++++++++++++++++++++++++++++++++++++++++++++++++++++++++++++++++++++++++++++++++++@@OOOOOOoo++++++++++++",
"++++++++++++++++++++++++++++++++++++++++++++++++++++++++++++++++++++++++++++++++++++++++++++++++++++++++++@@OOOOOOoo++++++++++++",
"++++++++++++++++++++++++++++++++++++++++++++++++++++++++++++++++++++++++++++++++++++++++++++++++++++++++++@@@@OOOOoooo++++++++++",
"++++++++++++++++++++++++++++++++++++++++++++++++++++++++++++++++++++++++++++++++++++++++++++++++++++++++++@@@@OOOOoooo++++++++++",
"++++++++++++++++++++++++++++++++++++++++++++++++++++++++++++++++++++++++++++++++++++++++++++++++++++++++++++@@OOOOOOoooo++++++++",
"++++++++++++++++++++++++++++++++++++++++++++++++++++++++++++++++++++++++++++++++++++++++++++++++++++++++++++@@OOOOOOoooo++++++++",
"++++++++++++++++++++++++++++++++++++++++++++++++++++++++++++++++++++++++++++++++++++++++++++++++++++++++++++@@@@OOOOOOoooo++++++",
"++++++++++++++++++++++++++++++++++++++++++++++++++++++++++++++++++++++++++++++++++++++++++++++++++++++++++++@@@@OOOOOOoooo++++++",
"++++++++++++++++++++++                                                          ++++++++++++++++++++++++++++++@@OOOOOOOOoooo++++",
"++++++++++++++++++++++                                                          ++++++++++++++++++++++++++++++@@OOOOOOOOoooo++++",
"oooooooo++++++++++++  ############################  ............................  ++++++++++++++++++++++++++++@@@@OOOOOOOOoooooo",
"oooooooo++++++++++++  ############################  ............................  ++++++++++++++++++++++++++++@@@@OOOOOOOOoooooo",
"OOOOOOoooooo++++++  ##############################  ..............................  ++++++++++++++++++++++++++++@@@@OOOOOOOOOOoo",
"OOOOOOoooooo++++++  ##############################  ..............................  ++++++++++++++++++++++++++++@@@@OOOOOOOOOOoo",
"OOOOOOOOOOoooooo  ################################  ................................  ++++++++++++++++++++++++++++@@@@OOOOOOOOOO",
"OOOOOOOOOOoooooo  ################################  ................................  ++++++++++++++++++++++++++++@@@@OOOOOOOOOO",
"@@@@@@OOOOOOOO      ##############################  ................................    ++++++++++++++++++++++++++++@@@@@@@@OOOO",
"@@@@@@OOOOOOOO      ##############################  ................................    ++++++++++++++++++++++++++++@@@@@@@@OOOO",
"@@++@@OOOOOO  ....    ############################  ..............................    ##  ++++++++++++++++++++++++++++++++@@@@@@",
"@@++@@OOOOOO  ....    ############################  ..............................    ##  ++++++++++++++++++++++++++++++++@@@@@@",
"++++@@@@@@  ........    ##########################  ............................    ######  ++++++++++++++++++++++++++++++++++++",
"++++@@@@@@  ........    ##########################  ............................    ######  ++++++++++++++++++++++++++++++++++++",
"++++++++  ............    ########################  ..........................    ##########  ++++++++++++++++++++++++++++++++++",
"++++++++  ............    ########################  ..........................    ##########  ++++++++++++++++++++++++++++++++++",
"++++++++  ..............    ######################  ........................    ############  ++++++++++++++++++++++++++++++++++",
"++++++++  ..............    ######################  ........................    ############  ++++++++++++++++++++++++++++++++++",
"++++++++  ................    ####################  ......................    ##############  ++++++++++++++++++++++++++++++++++",
"++++++++  ................    ####################  ......................    ##############  ++++++++++++++++++++++++++++++++++",
"++++++++  ..................    ##################  ....................    ################  ++++++++++++++++++++++++++++++++++",
"++++++++  ..................    ##################  ....................    ################  ++++++++++++++++++++++++++++++++++",
"++++++++  ....................    ################  ..................    ##################  ++++++++++++++++++++++++++++++++++",
"++++++++  ....................    ################  ..................    ##################  ++++++++++++++++++++++++++++++++++",
"++++++++  ......................    ##############  ................    ####################  ++++++++++++++++++++++++++++++++++",
"++++++++  ......................    ##############  ................    ####################  ++++++++++++++++++++++++++++++++++",
"++++++++  ........................    ############  ..............    ######################  ++++++++++++++++++++++++++++++++++",
"++++++++  ........................    ############  ..............    ######################  ++++++++++++++++++++++++++++++++++",
"++++++++  ..........................    ##########  ............    ########################  ++++++++++++++++++++++++++++++++++",
"++++++++  ..........................    ##########  ............    ########################  ++++++++++++++++++++++++++++++++++",
"++++++++  ............................    ########  ..........    ##########################  ++++++++++++++++++++++++++++++++++",
"++++++++  ............................    ########  ..........    ##########################  ++++++++++++++++++++++++++++++++++",
"++++++++  ..............................    ######  ........    ############################  oo++++++++++++++++++++++++++++++++",
"++++++++  ..............................    ######  ........    ############################  oo++++++++++++++++++++++++++++++++",
"++++++++  ................................    ####  ......    ##############################  oooooo++++++++++++++++++++++++++++",
"++++++++  ................................    ####  ......    ##############################  oooooo++++++++++++++++++++++++++++",
"++++++++  ..................................    ##  ....    ################################  OOOOoo++++++++++++++++++++++++++++",
"++++++++  ..................................    ##  ....    ################################  OOOOoo++++++++++++++++++++++++++++",
"++++++++  ....................................      ..    ##################################  OOOOoooooo++++++++++++++++++++++++",
"++++++++  ....................................      ..    ##################################  OOOOoooooo++++++++++++++++++++++++",
"++++++++  ......................................        ####################################  OOOOOOOOoooooo++++++++++++++++++++",
"++++++++  ......................................        ####################################  OOOOOOOOoooooo++++++++++++++++++++",
"++++++++                                          ##                                          @@OOOOOOOOOOoooo++++++++++++++++++",
"++++++++                                          ##                                          @@OOOOOOOOOOoooo++++++++++++++++++",
"++++++++  ####################################        ......................................  @@@@@@OOOOOOOOoooo++++++++++++++++",
"++++++++  ####################################        ......................................  @@@@@@OOOOOOOOoooo++++++++++++++++",
"++++++++  ##################################    ..      ....................................  ++++@@@@OOOOOOOOoooo++++++++++++++",
"++++++++  ##################################    ..      ....................................  ++++@@@@OOOOOOOOoooo++++++++++++++",
"++++++++  ################################    ....  ##    ..................................  ++++++@@@@OOOOOOOOoooo++++++++++++",
"++++++++  ################################    ....  ##    ..................................  ++++++@@@@OOOOOOOOoooo++++++++++++",
"++++++++  ##############################    ......  ####    ................................  ++++++++@@@@OOOOOOOOoooo++++++++++",
"++++++++  ##############################    ......  ####    ................................  ++++++++@@@@OOOOOOOOoooo++++++++++",
"++++++++  ############################    ........  ######    ..............................  ++++++++++@@@@OOOOOOOOoooooo++++++",
"++++++++  ############################    ........  ######    ..............................  ++++++++++@@@@OOOOOOOOoooooo++++++",
"++++++++  ##########################    ..........  ########    ............................  ++++++++++++@@@@OOOOOOOOOOoooo++++",
"++++++++  ##########################    ..........  ########    ............................  ++++++++++++@@@@OOOOOOOOOOoooo++++",
"++++++++  ########################    ............  ##########    ..........................  ++++++++++++++@@@@@@OOOOOOOOoooo++",
"++++++++  ########################    ............  ##########    ..........................  ++++++++++++++@@@@@@OOOOOOOOoooo++",
"oooooooo  ######################    ..............  ############    ........................  ++++++++++++++++++@@@@OOOOOOOOoooo",
"oooooooo  ######################    ..............  ############    ........................  ++++++++++++++++++@@@@OOOOOOOOoooo",
"OOOOOOoo  ####################    ................  ##############    ......................  ++++++++++++++++++++@@@@@@OOOOOOOO",
"OOOOOOoo  ####################    ................  ##############    ......................  ++++++++++++++++++++@@@@@@OOOOOOOO",
"OOOOOOoo  ##################    ..................  ################    ....................  ++++++++++++++++++++++++@@@@OOOOOO",
"OOOOOOoo  ##################    ..................  ################    ....................  ++++++++++++++++++++++++@@@@OOOOOO",
"@@OOOOOO  ################    ....................  ##################    ..................    ++++++++++++++++++++++++@@@@@@@@",
"@@OOOOOO  ################    ....................  ##################    ..................    ++++++++++++++++++++++++@@@@@@@@",
"@@OOOOOO  ##############    ......................  ####################    ................  XX  ++++++++++++++++++++++++++++++",
"@@OOOOOO  ##############    ......................  ####################    ................  XX  ++++++++++++++++++++++++++++++",
"@@@@@@OO  ############    ........................  ######################    ..............  XXXX  ++++++++++++++++++++++++++++",
"@@@@@@OO  ############    ........................  ######################    ..............  XXXX  ++++++++++++++++++++++++++++",
"++++@@OO  ##########    ..........................  ########################    ............  XXXXXX  ++++++++++++++++++++++++++",
"++++@@OO  ##########    ..........................  ########################    ............  XXXXXX  ++++++++++++++++++++++++++",
"++++@@@@@@  ######    ............................  ##########################    ........  XXXXXXXXXX  ++++++++++++++++++++++++",
"++++@@@@@@  ######    ............................  ##########################    ........  XXXXXXXXXX  ++++++++++++++++++++++++",
"++++++++@@@@  ##    ..............................  ############################    ....  XXXXXXXXXXXXXX  ++++++++++++++++++++++",
"++++++++@@@@  ##    ..............................  ############################    ....  XXXXXXXXXXXXXX  ++++++++++++++++++++++",
"++++++++++@@@@    ................................  ##############################      ####XXXXXXXXXXXX  ++++++++++++++++++++++",
"++++++++++@@@@    ................................  ##############################      ####XXXXXXXXXXXX  ++++++++++++++++++++++",
"++++++++++++++@@  ................................  ################################  ########XXXXXXXX  ++++++++++++++++++++++++",
"++++++++++++++@@  ................................  ################################  ########XXXXXXXX  ++++++++++++++++++++++++",
"++++++++++++++++++  ..............................  ##############################  ############XXXX  ++++++++++++++++++++++++++",
"++++++++++++++++++  ..............................  ##############################  ############XXXX  ++++++++++++++++++++++++++",
"++++++++++++++++++++                                                              ################  ++++++++++++++++++++++++++++",
"++++++++++++++++++++                                                              ################  ++++++++++++++++++++++++++++",
"++++++++++++++++++++++++++@@@@@@@@@@@@@@@@OOOOOO  XXXX##############XXXXXXXXXXXXXXXX############  ++++++++++++++++++++++++++++++",
"++++++++++++++++++++++++++@@@@@@@@@@@@@@@@OOOOOO  XXXX##############XXXXXXXXXXXXXXXX############  ++++++++++++++++++++++++++++++",
"++++++++++++++++++++++++++++++++++++++++@@@@@@  XXXXXXXX##############XXXXXXXXXXXXXXXX########  ++++++++++++++++++++++++++++++++",
"++++++++++++++++++++++++++++++++++++++++@@@@@@  XXXXXXXX##############XXXXXXXXXXXXXXXX########  ++++++++++++++++++++++++++++++++",
"++++++++++++++++++++++++++++++++++++++++++++  XXXXXXXXXXXX##############XXXXXXXXXXXXXXXX####  ++++++++++++++++++++++++++++++++++",
"++++++++++++++++++++++++++++++++++++++++++++  XXXXXXXXXXXX##############XXXXXXXXXXXXXXXX####  ++++++++++++++++++++++++++++++++++",
"++++++++++++++++++++++++++++++++++++++++++++  XXXXXXXXXXXXXX##############XXXXXXXXXXXXXXXX  ++++++++++++++++++++++++++++++++++++",
"++++++++++++++++++++++++++++++++++++++++++++  XXXXXXXXXXXXXX##############XXXXXXXXXXXXXXXX  ++++++++++++++++++++++++++++++++++++",
"++++++++++++++++++++++++++++++++++++++++++++++  XXXXXXXXXXXXXX##############XXXXXXXXXXXX  ++++++++++++++++++++++++++++++++++++++",
"++++++++++++++++++++++++++++++++++++++++++++++  XXXXXXXXXXXXXX##############XXXXXXXXXXXX  ++++++++++++++++++++++++++++++++++++++",
"++++++++++++++++++++++++++++++++++++++++++++++++  XXXXXXXXXXXXXX##############XXXXXXXX  ++++++++++++++++++++++++++++++++++++++++",
"++++++++++++++++++++++++++++++++++++++++++++++++  XXXXXXXXXXXXXX##############XXXXXXXX  ++++++++++++++++++++++++++++++++++++++++",
"++++++++++++++++++++++++++++++++++++++++++++++++++  XXXXXXXXXXXXXX##############XXXX  oooo++++++++++++++++++++++++++++++++++++++",
"++++++++++++++++++++++++++++++++++++++++++++++++++  XXXXXXXXXXXXXX##############XXXX  oooo++++++++++++++++++++++++++++++++++++++",
"++++++++++++++++++++++++++++++++++++++++++++++++++++  XXXXXXXXXXXXXX##############  OOoooooooo++++++++++++++++++++++++++++++++++",
"++++++++++++++++++++++++++++++++++++++++++++++++++++  XXXXXXXXXXXXXX##############  OOoooooooo++++++++++++++++++++++++++++++++++",
"++++++++++++++++++++++++++++++++++++++++++++++++++++++  XXXXXXXXXXXXXX##########  OOOOOOOOOOoooooo++++++++++++++++++++++++++++++",
"++++++++++++++++++++++++++++++++++++++++++++++++++++++  XXXXXXXXXXXXXX##########  OOOOOOOOOOoooooo++++++++++++++++++++++++++++++",
"++++++++++++++++++++++++++++++++++++++++++++++++++++++++  XXXXXXXXXXXXXX######  @@OOOOOOOOOOOOOOoooo++++++++++++++++++++++++++++",
"++++++++++++++++++++++++++++++++++++++++++++++++++++++++  XXXXXXXXXXXXXX######  @@OOOOOOOOOOOOOOoooo++++++++++++++++++++++++++++",
"++++++++++++++++++++++++++++++++++++++++++++++++++++++++++  XXXXXXXXXXXXXX##  ++@@@@@@@@OOOOOOOOOOoooo++++++++++++++++++++++++++",
"++++++++++++++++++++++++++++++++++++++++++++++++++++++++++  XXXXXXXXXXXXXX##  ++@@@@@@@@OOOOOOOOOOoooo++++++++++++++++++++++++++",
"++++++++++++++++++++++++++++++++++++++++++++++++++++++++++++  XXXXXXXXXXXX  ++++++++++@@@@@@OOOOOOOOoooooo++++++++++++++++++++++",
"++++++++++++++++++++++++++++++++++++++++++++++++++++++++++++  XXXXXXXXXXXX  ++++++++++@@@@@@OOOOOOOOoooooo++++++++++++++++++++++",
"++++++++++++++++++++++++++++++++++++++++++++++++++++++++++++++  XXXXXXXX  ++++++++++++++++@@@@OOOOOOOOOOoooo++++++++++++++++++++",
"++++++++++++++++++++++++++++++++++++++++++++++++++++++++++++++  XXXXXXXX  ++++++++++++++++@@@@OOOOOOOOOOoooo++++++++++++++++++++",
"++++++++++++++++++++++++++++++++++++++++++++++++++++++++++++++++  XXXX  ++++++++++++++++++++@@@@@@OOOOOOOOoooo++++++++++++++++++",
"++++++++++++++++++++++++++++++++++++++++++++++++++++++++++++++++  XXXX  ++++++++++++++++++++@@@@@@OOOOOOOOoooo++++++++++++++++++",
"++++++++++++++++++++++++++++++++++++++++++++++++++++++++++++++++++    ++++++++++++++++++++++++++@@@@OOOOOOOOoooo++++++++++++++++",
"++++++++++++++++++++++++++++++++++++++++++++++++++++++++++++++++++    ++++++++++++++++++++++++++@@@@OOOOOOOOoooo++++++++++++++++",
"++++++++++++++++++++++++++++++++++++++++++++++++++++++++++++++++++++++++++++++++++++++++++++++++++@@@@OOOOOOOOoooo++++++++++++++",
"++++++++++++++++++++++++++++++++++++++++++++++++++++++++++++++++++++++++++++++++++++++++++++++++++@@@@OOOOOOOOoooo++++++++++++++",
"++++++++++++++++++++++++++++++++++++++++++++++++++++++++++++++++++++++++++++++++++++++++++++++++++++@@@@@@OOOOOOoooo++++++++++++",
"++++++++++++++++++++++++++++++++++++++++++++++++++++++++++++++++++++++++++++++++++++++++++++++++++++@@@@@@OOOOOOoooo++++++++++++"
};
