/* XPM */
static char *sortie[] = {
/* columns rows colors chars-per-pixel */
"128 128 12 1 ",
"  c black",
". c #703B24",
"X c #FC000D",
"o c #ED1C24",
"O c #B5A872",
"+ c #404AC9",
"@ c gray58",
"# c #BFBDBF",
"$ c #D9C989",
"% c #F5E49C",
"& c gray84",
"* c #F7EDC6",
/* pixels */
"%%%%%%%%%%%%%%%%%%%%%%%%%%%%%%%%%%%%%%%%%%%%%%%%%%%%%%%%%%%%%%%%%%%%%%%%%%%%%%%%%%%%%%%%%%%%%%%%%%%%%%%%****$$$$OOOO%%%%%%%%%%%%",
"%%%%%%%%%%%%%%%%%%%%%%%%%%%%%%%%%%%%%%%%%%%%%%%%%%%%%%%%%%%%%%%%%%%%%%%%%%%%%%%%%%%%%%%%%%%%%%%%%%%%%%%%****$$$$OOOO%%%%%%%%%%%%",
"%%%%%%%%%%%%%%%%%%%%%%%%%%%%%%%%%%%%%%%%%%%%%%%%%%%%%%%%%%%%%%%%%%%%%%%%%%%%%%%%%%%%%%%%%%%%%%%%%%%%%%%%%%**$$$$$$OO%%%%%%%%%%%%",
"%%%%%%%%%%%%%%%%%%%%%%%%%%%%%%%%%%%%%%%%%%%%%%%%%%%%%%%%%%%%%%%%%%%%%%%%%%%%%%%%%%%%%%%%%%%%%%%%%%%%%%%%%%**$$$$$$OO%%%%%%%%%%%%",
"%%%%%%%%%%%%%%%%%%%%%%%%%%%%%%%%%%%%%%%%%%%%%%%%%%%%%%%%%%%%%%%%%%%%%%%%%%%%%%%%%%%%%%%%%%%%%%%%%%%%%%%%%%****$$$$OOOO%%%%%%%%%%",
"%%%%%%%%%%%%%%%%%%%%%%%%%%%%%%%%%%%%%%%%%%%%%%%%%%%%%%%%%%%%%%%%%%%%%%%%%%%%%%%%%%%%%%%%%%%%%%%%%%%%%%%%%%****$$$$OOOO%%%%%%%%%%",
"%%%%%%%%%%%%%%%%%%%%%%%%%%%%%%%%%%%%%%%%%%%%%%%%%%%%%%%%%%%%%%%%%%%%%%%%%%%%%%%%%%%%%%%%%%%%%%%%%%%%%%%%%%%%**$$$$$$OOOO%%%%%%%%",
"%%%%%%%%%%%%%%%%%%%%%%%%%%%%%%%%%%%%%%%%%%%%%%%%%%%%%%%%%%%%%%%%%%%%%%%%%%%%%%%%%%%%%%%%%%%%%%%%%%%%%%%%%%%%**$$$$$$OOOO%%%%%%%%",
"%%%%%%%%%%%%%%%%%%%%%%%%%%%%%%%%%%%%%%%%%%%%%%%%%%%%%%%%%%%%%%%%%%%%%%%%%%%%%%%%%%%%%%%%%%%%%%%%%%%%%%%%%%%%****$$$$$$OOOO%%%%%%",
"%%%%%%%%%%%%%%%%%%%%%%%%%%%%%%%%%%%%%%%%%%%%%%%%%%%%%%%%%%%%%%%%%%%%%%%%%%%%%%%%%%%%%%%%%%%%%%%%%%%%%%%%%%%%****$$$$$$OOOO%%%%%%",
"%%%%%%%%%%%%%%%%%%%%%%%%%%%%%%%%%%%%%%%%%%%%%%%%%%%%%%%%%%%%%%%%%%%%%%%%%%%%%%%%%%%%%%%%%%%%%%%%%%%%%%%%%%%%%%**$$$$$$$$OOOO%%%%",
"%%%%%%%%%%%%%%%%%%%%%%%%%%%%%%%%%%%%%%%%%%%%%%%%%%%%%%%%%%%%%%%%%%%%%%%%%%%%%%%%%%%%%%%%%%%%%%%%%%%%%%%%%%%%%%**$$$$$$$$OOOO%%%%",
"OOOOOOOO%%%%%%%%%%%%%%%%%%%%%%%%%%%%%%%%%%%%%%%%%%%%%%%%%%%%%%%%%%%%%%%%%%%%%%%%%%%%%%%%%%%%%%%%%%%%%%%%%%%%%%****$$$$$$$$OOOOOO",
"OOOOOOOO%%%%%%%%%%%%%%%%%%%%%%%%%%%%%%%%%%%%%%%%%%%%%%%%%%%%%%%%%%%%%%%%%%%%%%%%%%%%%%%%%%%%%%%%%%%%%%%%%%%%%%****$$$$$$$$OOOOOO",
"$$$$$$OOOOOO%%%%%%%%%%%%%%%%%%%%%%%%%%%%%%%%%%%%%%%%%%%%%%%%%%%%%%%%%%%%%%%%%%%%%%%%%%%%%%%%%%%%%%%%%%%%%%%%%%%%****$$$$$$$$$$OO",
"$$$$$$OOOOOO%%%%%%%%%%%%%%%%%%%%%%%%%%%%%%%%%%%%%%%%%%%%%%%%%%%%%%%%%%%%%%%%%%%%%%%%%%%%%%%%%%%%%%%%%%%%%%%%%%%%****$$$$$$$$$$OO",
"$$$$$$$$$$OOOOOO%%%%%%%%%%%%%%%%%%%%%%%%%%%%%%%%%%%%%%%%%%%%%%%%%%%%%%%%%%%%%%%%%%%%%%%%%%%%%%%%%%%%%%%%%%%%%%%%%%****$$$$$$$$$$",
"$$$$$$$$$$OOOOOO%%%%%%%%%%%%%%%%%%%%%%%%%%%%%%%%%%%%%%%%%%%%%%%%%%%%%%%%%%%%%%%%%%%%%%%%%%%%%%%%%%%%%%%%%%%%%%%%%%****$$$$$$$$$$",
"******$$$$$$$$OOOO%%%%%%%%%%%%%%%%%%%%%%%%%%%%%%%%%%%%%%%%%%%%%%%%%%%%%%%%%%%%%%%%%%%%%%%%%%%%%%%%%%%%%%%%%%%%%%%%%%********$$$$",
"******$$$$$$$$OOOO%%%%%%%%%%%%%%%%%%%%%%%%%%%%%%%%%%%%%%%%%%%%%%%%%%%%%%%%%%%%%%%%%%%%%%%%%%%%%%%%%%%%%%%%%%%%%%%%%%********$$$$",
"**%%**$$$$$$$$$$OOOO%%%%%%%%%%%%%%%%%%%%%%%%%%%%%%%%%%%%%%%%%%%%%%%%%%%%%%%%%%%%%%%%%%%%%%%%%%%%%%%%%%%%%%%%%%%%%%%%%%%%%%******",
"**%%**$$$$$$$$$$OOOO%%%%%%%%%%%%%%%%%%%%%%%%%%%%%%%%%%%%%%%%%%%%%%%%%%%%%%%%%%%%%%%%%%%%%%%%%%%%%%%%%%%%%%%%%%%%%%%%%%%%%%******",
"%%%%******$$$$$$$$OOOO%%%%%%%%%%%%%%%%%%%%%%%%%%%%%%%%%%%%%%%%%%%%%%%%%%%%%%%%%%%%%%%%%%%%%%%%%%%%%%%%%%%%%%%%%%%%%%%%%%%%%%%%%%",
"%%%%******$$$$$$$$OOOO%%%%%%%%%%%%%%%%%%%%%%%%%%%%%%%%%%%%%%%%%%%%%%%%%%%%%%%%%%%%%%%%%%%%%%%%%%%%%%%%%%%%%%%%%%%%%%%%%%%%%%%%%%",
"%%%%%%%%****$$$$$$$$OOOO%%%%%%%%%%%%%%%%%%%%%%%%%%%%%%%%%%%%%%%%%%%%%%%%%%%%%%%%%%%%%%%%%%%%%%%%%%%%%%%%%%%%%%%%%%%%%%%%%%%%%%%%",
"%%%%%%%%****$$$$$$$$OOOO%%%%%%%%%%%%%%%%%%%%%%%%%%%%%%%%%%%%%%%%%%%%%%%%%%%%%%%%%%%%%%%%%%%%%%%%%%%%%%%%%%%%%%%%%%%%%%%%%%%%%%%%",
"%%%%%%%%%%****$$$$$$$$OOOO%%%%%%%%%%%%%%%%%%%%%%%%%%%%%%%%%%%%%%%%%%%%%%%%%%%%%%%%%%%%%%%%%%%%%%%%%%%%%%%%%%%%%%%%%%%%%%%%%%%%%%",
"%%%%%%%%%%****$$$$$$$$OOOO%%%%%%%%%%%%%%%%%%%%%%%%%%%%%%%%%%%%%%%%%%%%%%%%%%%%%%%%%%%%%%%%%%%%%%%%%%%%%%%%%%%%%%%%%%%%%%%%%%%%%%",
"%%%%%%%%%%%%****$$$$$$$$OOOO%%%%%%%%%%%%%%%%++++++++++++++++++++++++++++++++++++++++++%%%%%%%%%%%%%%%%%%%%%%%%%%%%%%%%%%%%%%%%%%",
"%%%%%%%%%%%%****$$$$$$$$OOOO%%%%%%%%%%%%%%%%++++++++++++++++++++++++++++++++++++++++++%%%%%%%%%%%%%%%%%%%%%%%%%%%%%%%%%%%%%%%%%%",
"%%%%%%%%%%%%%%****$$$$$$$$OOOOOO%%%%%%%%%%%%++++++++++++++++++++++++++++++++++++++++++%%%%%%%%%%%%%%%%%%%%%%%%%%%%%%%%%%%%%%%%%%",
"%%%%%%%%%%%%%%****$$$$$$$$OOOOOO%%%%%%%%%%%%++++++++++++++++++++++++++++++++++++++++++%%%%%%%%%%%%%%%%%%%%%%%%%%%%%%%%%%%%%%%%%%",
"%%%%%%%%%%%%%%%%****$$$$$$$$$$OOOOOO%%%%%%%%++++++++++++++++++++++++++++++++++++++++++%%%%%%%%%%%%%%%%%%%%%%%%%%%%%%%%%%%%%%%%%%",
"%%%%%%%%%%%%%%%%****$$$$$$$$$$OOOOOO%%%%%%%%++++++++++++++++++++++++++++++++++++++++++%%%%%%%%%%%%%%%%%%%%%%%%%%%%%%%%%%%%%%%%%%",
"%%%%%%%%%%%%%%%%%%******$$$$$$$$$$OOOOOOOOOO++++++++++++++++++++++++++++++++++++++++++%%%%%%%%%%%%%%%%%%%%%%%%%%%%%%%%%%%%%%%%%%",
"%%%%%%%%%%%%%%%%%%******$$$$$$$$$$OOOOOOOOOO++++++++++++++++++++++++++++++++++++++++++%%%%%%%%%%%%%%%%%%%%%%%%%%%%%%%%%%%%%%%%%%",
"%%%%%%%%%%%%%%%%%%%%%%****$$$$$$$$$$$$$$$$OO++++++++++++++++++++++++++++++++++++++++++%%%%%%%%%%%%%%%%%%%%%%%%%%%%%%%%%%%%%%%%%%",
"%%%%%%%%%%%%%%%%%%%%%%****$$$$$$$$$$$$$$$$OO++++++++++++++++++++++++++++++++++++++++++%%%%%%%%%%%%%%%%%%%%%%%%%%%%%%%%%%%%%%%%%%",
"%%%%%%%%%%%%%%%%%%%%%%%%********$$$$$$$$$$$$++++++++++++++++++++++++++++++++++++++++++%%%%%%%%%%%%%%%%%%%%%%%%%%%%%%%%%%%%%%%%%%",
"%%%%%%%%%%%%%%%%%%%%%%%%********$$$$$$$$$$$$++++++++++++++++++++++++++++++++++++++++++%%%%%%%%%%%%%%%%%%%%%%%%%%%%%%%%%%%%%%%%%%",
"%%%%%%%%%%%%%%%%%%%%%%%%%%%%%%********$$$$$$##$$$$$$$$OOOOOOOOOOOOOOOO$$$$$$$$$$$$OO##OOOOOO%%%%%%%%%%%%%%%%%%%%%%%%%%%%%%%%%%%%",
"%%%%%%%%%%%%%%%%%%%%%%%%%%%%%%********$$$$$$##$$$$$$$$OOOOOOOOOOOOOOOO$$$$$$$$$$$$OO##OOOOOO%%%%%%%%%%%%%%%%%%%%%%%%%%%%%%%%%%%%",
"%%%%%%%%%%%%%%%%%%%%%%%%%%%%%%%%%%%%********##$$$$$$$$$$$$$$$$$$$$$$$$$$$$$$$$$$$$$$##$$$$OOOOOO%%%%%%%%%%%%%%%%%%%%%%%%%%%%%%%%",
"%%%%%%%%%%%%%%%%%%%%%%%%%%%%%%%%%%%%********##$$$$$$$$$$$$$$$$$$$$$$$$$$$$$$$$$$$$$$##$$$$OOOOOO%%%%%%%%%%%%%%%%%%%%%%%%%%%%%%%%",
"%%%%%%%%%%%%%%%%%%%%%%%%%%%%%%%%%%%%%%%%%%%%##******$$$$$$$$$$$$$$$$$$$$$$******$$$$##$$$$$$$$OOOOOO%%%%%%%%%%%%%%%%%%%%%%%%%%%%",
"%%%%%%%%%%%%%%%%%%%%%%%%%%%%%%%%%%%%%%%%%%%%##******$$$$$$$$$$$$$$$$$$$$$$******$$$$##$$$$$$$$OOOOOO%%%%%%%%%%%%%%%%%%%%%%%%%%%%",
"%%%%%%%%%%%%%%%%%%%%%%%%%%%%%%%%%%%%%%%%%%%%##%%%%**************************%%******##**$$$$$$$$$$OO%%%%%%%%%%%%%%%%%%%%%%%%%%%%",
"%%%%%%%%%%%%%%%%%%%%%%%%%%%%%%%%%%%%%%%%%%%%##%%%%**************************%%******##**$$$$$$$$$$OO%%%%%%%%%%%%%%%%%%%%%%%%%%%%",
"%%%%%%%%%%%%%%%%%%%%%%%%%%%%++++++++####%%%%++++++++++++++++++++++++++++++++++++++++++****####++++++++OO%%%%%%%%%%%%%%%%%%%%%%%%",
"%%%%%%%%%%%%%%%%%%%%%%%%%%%%++++++++####%%%%++++++++++++++++++++++++++++++++++++++++++****####++++++++OO%%%%%%%%%%%%%%%%%%%%%%%%",
"%%%%%%%%%%%%%%%%%%%%%%%%%%%%++++++++%%####++++++++++++++++++++++++++++++++++++++++++++++####**++++++++OOOOOO%%%%%%%%%%%%%%%%%%%%",
"%%%%%%%%%%%%%%%%%%%%%%%%%%%%++++++++%%####++++++++++++++++++++++++++++++++++++++++++++++####**++++++++OOOOOO%%%%%%%%%%%%%%%%%%%%",
"%%%%%%%%%%%%%%%%%%%%%%%%%%%%++++++++%%%%%%++++++++++++++++++++++++++++++++++++++++++++++%%%%**++++++++$$$$OOOO%%%%%%%%%%%%%%%%%%",
"%%%%%%%%%%%%%%%%%%%%%%%%%%%%++++++++%%%%%%++++++++++++++++++++++++++++++++++++++++++++++%%%%**++++++++$$$$OOOO%%%%%%%%%%%%%%%%%%",
"%%%%%%%%%%%%%%%%%%%%%%%%%%%%++++++++%%%%%%++++++++++++++  ++++++++++++++++++  ++++++++++%%%%%%++++++++$$$$$$OOOO%%%%%%%%%%%%%%%%",
"%%%%%%%%%%%%%%%%%%%%%%%%%%%%++++++++%%%%%%++++++++++++++  ++++++++++++++++++  ++++++++++%%%%%%++++++++$$$$$$OOOO%%%%%%%%%%%%%%%%",
"%%%%%%%%%%%%%%%%%%%%%%%%%%%%++++++++%%%%##++++++++++++  ++++++++++++++++++  ++++++++++++##%%%%++++++++$$$$$$$$OOOO%%%%%%%%%%%%%%",
"%%%%%%%%%%%%%%%%%%%%%%%%%%%%++++++++%%%%##++++++++++++  ++++++++++++++++++  ++++++++++++##%%%%++++++++$$$$$$$$OOOO%%%%%%%%%%%%%%",
"%%%%%%%%%%%%%%%%%%%%%%%%%%%%++++++++%%####++++++++++  ++++++++++++++++++  ++++++++++++++####%%++++++++**$$$$$$$$OOOO%%%%%%%%%%%%",
"%%%%%%%%%%%%%%%%%%%%%%%%%%%%++++++++%%####++++++++++  ++++++++++++++++++  ++++++++++++++####%%++++++++**$$$$$$$$OOOO%%%%%%%%%%%%",
"%%%%%%%%%%%%%%%%%%%%%%%%%%%%++++++++####%%++++++++  ++++++++++++++++++  ++++++++++++++++%%####++++++++****$$$$$$$$OOOO%%%%%%%%%%",
"%%%%%%%%%%%%%%%%%%%%%%%%%%%%++++++++####%%++++++++  ++++++++++++++++++  ++++++++++++++++%%####++++++++****$$$$$$$$OOOO%%%%%%%%%%",
"%%%%%%%%%%%%%%%%%%%%%%%%%%%%++++++++####%%++++++                          ++++++++++++++%%####++++++++%%****$$$$$$$$OOOOOO%%%%%%",
"%%%%%%%%%%%%%%%%%%%%%%%%%%%%++++++++####%%++++++                          ++++++++++++++%%####++++++++%%****$$$$$$$$OOOOOO%%%%%%",
"%%%%%%%%%%%%%%%%%%%%%%%%%%%%++++++++%%%%%%++++++++        ++++++        ++++++++++++++++%%%%%%++++++++%%%%****$$$$$$$$$$OOOO%%%%",
"%%%%%%%%%%%%%%%%%%%%%%%%%%%%++++++++%%%%%%++++++++        ++++++        ++++++++++++++++%%%%%%++++++++%%%%****$$$$$$$$$$OOOO%%%%",
"%%%%%%%%%%%%%%%%%%%%%%%%%%%%++++++++%%%%%%++++++++++    ++++++++++    ++++++++++++++++++%%%%%%++++++++%%%%%%******$$$$$$$$OOOO%%",
"%%%%%%%%%%%%%%%%%%%%%%%%%%%%++++++++%%%%%%++++++++++    ++++++++++    ++++++++++++++++++%%%%%%++++++++%%%%%%******$$$$$$$$OOOO%%",
"OOOOOOOO%%%%%%%%%%%%XXXXXX%%++++++++%%%%%%++++++++++++++++++++++++++++++++++++++++++++++%%%%%%++++++++%%%%%%%%%%****$$$$$$$$OOOO",
"OOOOOOOO%%%%%%%%%%%%XXXXXX%%++++++++%%%%%%++++++++++++++++++++++++++++++++++++++++++++++%%%%%%++++++++%%%%%%%%%%****$$$$$$$$OOOO",
"$$$$$$OO%%%%%%%%%%%%&&..&&%%++@@@@++%%%%%%++++++++++++++++++++++++++++++++++++++++++++++%%%%%%++++++++%%%%%%%%%%%%******$$$$$$$$",
"$$$$$$OO%%%%%%%%%%%%&&..&&%%++@@@@++%%%%%%++++++++++++++++++++++++++++++++++++++++++++++%%%%%%++++++++%%%%%%%%%%%%******$$$$$$$$",
"$$$$$$OOOO%%%%%%%%%%&&..&&%%++@@@@++%%%%%%++++++++++++++++++++++++++++++++++++++++++++++%%%%%%++++++++%%%%%%%%%%%%%%%%****$$$$$$",
"$$$$$$OOOO%%%%%%%%%%&&..&&%%++@@@@++%%%%%%++++++++++++++++++++++++++++++++++++++++++++++%%%%%%++++++++%%%%%%%%%%%%%%%%****$$$$$$",
"**$$$$$$OOOO%%%%%%%%&&..&&%%++@@@@++%%%%%%++++++++++++++++++++++++++++++++++++++++++++++%%%%%%++++++++%%%%%%%%%%%%%%%%%%********",
"**$$$$$$OOOO%%%%%%%%&&..&&%%++@@@@++%%%%%%++++++++++++++++++++++++++++++++++++++++++++++%%%%%%++++++++%%%%%%%%%%%%%%%%%%********",
"**$$$$$$$$OOOO%%%%&&......&&++@@@@++%%%%%%++++++++++++++++++++++++++++++++++++++++++++++%%%%%%++++++++%%%%%%%%%%%%%%%%%%%%%%%%%%",
"**$$$$$$$$OOOO%%%%&&......&&++@@@@++%%%%%%++++++++++++++++++++++++++++++++++++++++++++++%%%%%%++++++++%%%%%%%%%%%%%%%%%%%%%%%%%%",
"******$$$$$$OOOOOO&&......&&++++++++%%%%%%++++++++++++++++++++++++++++++++++++++++++++++%%%%%%++++++++%%%%%%%%%%%%%%%%%%%%%%%%%%",
"******$$$$$$OOOOOO&&......&&++++++++%%%%%%++++++++++++++++++++++++++++++++++++++++++++++%%%%%%++++++++%%%%%%%%%%%%%%%%%%%%%%%%%%",
"%%%%**$$$$$$$$$$OO&&oooooo&&++++++++%%####++++++++++++++++++++++++++++++++++++++++++++++####%%++++++++%%%%%%%%%%%%%%%%%%%%%%%%%%",
"%%%%**$$$$$$$$$$OO&&oooooo&&++++++++%%####++++++++++++++++++++++++++++++++++++++++++++++####%%++++++++%%%%%%%%%%%%%%%%%%%%%%%%%%",
"%%%%******$$$$$$$$&&oooooo&&++++++++####%%%%++++++++++++++++++++++++++++++++++++++++++%%%%####++++++++%%%%%%%%%%%%%%%%%%%%%%%%%%",
"%%%%******$$$$$$$$&&oooooo&&++++++++####%%%%++++++++++++++++++++++++++++++++++++++++++%%%%####++++++++%%%%%%%%%%%%%%%%%%%%%%%%%%",
"%%%%%%%%****$$$$$$&&......&&%%%%%%%%%%%%%%######%%%%%%%%%%%%%%%%%%%%%%%%%%%%%%%%%%######%%%%%%%%%%%%%%%%%%%%%%%%%%%%%%%%%%%%%%%%",
"%%%%%%%%****$$$$$$&&......&&%%%%%%%%%%%%%%######%%%%%%%%%%%%%%%%%%%%%%%%%%%%%%%%%%######%%%%%%%%%%%%%%%%%%%%%%%%%%%%%%%%%%%%%%%%",
"%%%%%%%%%%******$$&&......&&OOOOOO%%%%%%######%%%%%%%%%%%%%%%%%%%%%%%%%%%%%%%%%%%%%%######%%%%%%%%%%%%%%%%%%%%%%%%%%%%%%%%%%%%%%",
"%%%%%%%%%%******$$&&......&&OOOOOO%%%%%%######%%%%%%%%%%%%%%%%%%%%%%%%%%%%%%%%%%%%%%######%%%%%%%%%%%%%%%%%%%%%%%%%%%%%%%%%%%%%%",
"%%%%%%%%%%%%%%****&&&&&&&&&&$$$$OOOOOO######OOOO%%%%%%%%%%%%%%%%%%%%%%%%%%%%%%%%%%%%%%######%%%%%%%%%%%%%%%%%%%%%%%%%%%%%%%%%%%%",
"%%%%%%%%%%%%%%****&&&&&&&&&&$$$$OOOOOO######OOOO%%%%%%%%%%%%%%%%%%%%%%%%%%%%%%%%%%%%%%######%%%%%%%%%%%%%%%%%%%%%%%%%%%%%%%%%%%%",
"%%%%%%%%%%%%%%%%%%******$$$$$$$$$$$$######$$OOOOOOOOOOOOOO%%%%%%%%%%%%%%%%%%%%%%%%%%%%%%######%%%%%%%%%%%%%%%%%%%%%%%%%%%%%%%%%%",
"%%%%%%%%%%%%%%%%%%******$$$$$$$$$$$$######$$OOOOOOOOOOOOOO%%%%%%%%%%%%%%%%%%%%%%%%%%%%%%######%%%%%%%%%%%%%%%%%%%%%%%%%%%%%%%%%%",
"%%%%%%%%%%%%%%%%%%%%%%********$$$$$$######$$$$$$$$$$$$$$OOOOOOOOOOOOOO%%%%%%%%%%%%%%%%%%######%%%%%%%%%%%%%%%%%%%%%%%%%%%%%%%%%%",
"%%%%%%%%%%%%%%%%%%%%%%********$$$$$$######$$$$$$$$$$$$$$OOOOOOOOOOOOOO%%%%%%%%%%%%%%%%%%######%%%%%%%%%%%%%%%%%%%%%%%%%%%%%%%%%%",
"%%%%%%%%%%%%%%%%%%%%%%%%%%****************$$$$$$$$$$$$$$$$$$$$$$$$$$OOOO%%%%%%%%%%%%%%%%%%%%%%%%%%%%%%%%%%%%%%%%%%%%%%%%%%%%%%%%",
"%%%%%%%%%%%%%%%%%%%%%%%%%%****************$$$$$$$$$$$$$$$$$$$$$$$$$$OOOO%%%%%%%%%%%%%%%%%%%%%%%%%%%%%%%%%%%%%%%%%%%%%%%%%%%%%%%%",
"%%%%%%%%%%%%%%%%%%%%%%%%%%%%%%%%%%%%%%%%****************$$$$$$$$$$$$$$OOOOOO%%%%%%%%%%%%%%%%%%%%%%%%%%%%%%%%%%%%%%%%%%%%%%%%%%%%",
"%%%%%%%%%%%%%%%%%%%%%%%%%%%%%%%%%%%%%%%%****************$$$$$$$$$$$$$$OOOOOO%%%%%%%%%%%%%%%%%%%%%%%%%%%%%%%%%%%%%%%%%%%%%%%%%%%%",
"%%%%%%%%%%%%%%%%%%%%%%%%%%%%%%%%%%%%%%%%%%%%%%%%%%%%%%**********$$$$$$$$$$OOOOOO%%%%%%%%%%%%%%%%%%%%%%%%%%%%%%%%%%%%%%%%%%%%%%%%",
"%%%%%%%%%%%%%%%%%%%%%%%%%%%%%%%%%%%%%%%%%%%%%%%%%%%%%%**********$$$$$$$$$$OOOOOO%%%%%%%%%%%%%%%%%%%%%%%%%%%%%%%%%%%%%%%%%%%%%%%%",
"%%%%%%%%%%%%%%%%%%%%%%%%%%%%%%%%%%%%%%%%%%%%%%%%%%%%%%%%%%%%%%******$$$$$$$$$$OOOO%%%%%%%%%%%%%%%%%%%%%%%%%%%%%%%%%%%%%%%%%%%%%%",
"%%%%%%%%%%%%%%%%%%%%%%%%%%%%%%%%%%%%%%%%%%%%%%%%%%%%%%%%%%%%%%******$$$$$$$$$$OOOO%%%%%%%%%%%%%%%%%%%%%%%%%%%%%%%%%%%%%%%%%%%%%%",
"%%%%%%%%%%%%%%%%%%%%%%%%%%%%%%%%%%%%%%%%%%%%%%%%%%%%%%%%%%%%%%%%%%******$$$$$$$$OOOO%%%%%%%%%%%%%%%%%%%%%%%%%%%%%%%%%%%%%%%%%%%%",
"%%%%%%%%%%%%%%%%%%%%%%%%%%%%%%%%%%%%%%%%%%%%%%%%%%%%%%%%%%%%%%%%%%******$$$$$$$$OOOO%%%%%%%%%%%%%%%%%%%%%%%%%%%%%%%%%%%%%%%%%%%%",
"%%%%%%%%%%%%%%%%%%%%%%%%%%%%%%%%%%%%%%%%%%%%%%%%%%%%%%%%%%%%%%%%%%%%%%****$$$$$$$$OO%%%%%%%%%%%%%%%%%%%%%%%%%%%%%%%%%%%%%%%%%%%%",
"%%%%%%%%%%%%%%%%%%%%%%%%%%%%%%%%%%%%%%%%%%%%%%%%%%%%%%%%%%%%%%%%%%%%%%****$$$$$$$$OO%%%%%%%%%%%%%%%%%%%%%%%%%%%%%%%%%%%%%%%%%%%%",
"%%%%%%%%%%%%%%%%%%%%%%%%%%%%%%%%%%%%%%%%%%%%%%%%%%%%%%%%%%%%%%%%%%%%%%%%****$$$$$$OOOOOOOO%%%%%%%%%%%%%%%%%%%%%%%%%%%%%%%%%%%%%%",
"%%%%%%%%%%%%%%%%%%%%%%%%%%%%%%%%%%%%%%%%%%%%%%%%%%%%%%%%%%%%%%%%%%%%%%%%****$$$$$$OOOOOOOO%%%%%%%%%%%%%%%%%%%%%%%%%%%%%%%%%%%%%%",
"%%%%%%%%%%%%%%%%%%%%%%%%%%%%%%%%%%%%%%%%%%%%%%%%%%%%%%%%%%%%%%%%%%%%%%%%%%****$$$$$$$$OOOOOOOO%%%%%%%%%%%%%%%%%%%%%%%%%%%%%%%%%%",
"%%%%%%%%%%%%%%%%%%%%%%%%%%%%%%%%%%%%%%%%%%%%%%%%%%%%%%%%%%%%%%%%%%%%%%%%%%****$$$$$$$$OOOOOOOO%%%%%%%%%%%%%%%%%%%%%%%%%%%%%%%%%%",
"%%%%%%%%%%%%%%%%%%%%%%%%%%%%%%%%%%%%%%%%%%%%%%%%%%%%%%%%%%%%%%%%%%%%%%%%%%%%****$$$$$$$$$$$$OOOOOO%%%%%%%%%%%%%%%%%%%%%%%%%%%%%%",
"%%%%%%%%%%%%%%%%%%%%%%%%%%%%%%%%%%%%%%%%%%%%%%%%%%%%%%%%%%%%%%%%%%%%%%%%%%%%****$$$$$$$$$$$$OOOOOO%%%%%%%%%%%%%%%%%%%%%%%%%%%%%%",
"%%%%%%%%%%%%%%%%%%%%%%%%%%%%%%%%%%%%%%%%%%%%%%%%%%%%%%%%%%%%%%%%%%%%%%%%%%%%%%****$$$$$$$$$$$$$$OOOO%%%%%%%%%%%%%%%%%%%%%%%%%%%%",
"%%%%%%%%%%%%%%%%%%%%%%%%%%%%%%%%%%%%%%%%%%%%%%%%%%%%%%%%%%%%%%%%%%%%%%%%%%%%%%****$$$$$$$$$$$$$$OOOO%%%%%%%%%%%%%%%%%%%%%%%%%%%%",
"%%%%%%%%%%%%%%%%%%%%%%%%%%%%%%%%%%%%%%%%%%%%%%%%%%%%%%%%%%%%%%%%%%%%%%%%%%%%%%%%********$$$$$$$$$$OOOO%%%%%%%%%%%%%%%%%%%%%%%%%%",
"%%%%%%%%%%%%%%%%%%%%%%%%%%%%%%%%%%%%%%%%%%%%%%%%%%%%%%%%%%%%%%%%%%%%%%%%%%%%%%%%********$$$$$$$$$$OOOO%%%%%%%%%%%%%%%%%%%%%%%%%%",
"%%%%%%%%%%%%%%%%%%%%%%%%%%%%%%%%%%%%%%%%%%%%%%%%%%%%%%%%%%%%%%%%%%%%%%%%%%%%%%%%%%%%%%******$$$$$$$$OOOOOO%%%%%%%%%%%%%%%%%%%%%%",
"%%%%%%%%%%%%%%%%%%%%%%%%%%%%%%%%%%%%%%%%%%%%%%%%%%%%%%%%%%%%%%%%%%%%%%%%%%%%%%%%%%%%%%******$$$$$$$$OOOOOO%%%%%%%%%%%%%%%%%%%%%%",
"%%%%%%%%%%%%%%%%%%%%%%%%%%%%%%%%%%%%%%%%%%%%%%%%%%%%%%%%%%%%%%%%%%%%%%%%%%%%%%%%%%%%%%%%%%****$$$$$$$$$$OOOO%%%%%%%%%%%%%%%%%%%%",
"%%%%%%%%%%%%%%%%%%%%%%%%%%%%%%%%%%%%%%%%%%%%%%%%%%%%%%%%%%%%%%%%%%%%%%%%%%%%%%%%%%%%%%%%%%****$$$$$$$$$$OOOO%%%%%%%%%%%%%%%%%%%%",
"%%%%%%%%%%%%%%%%%%%%%%%%%%%%%%%%%%%%%%%%%%%%%%%%%%%%%%%%%%%%%%%%%%%%%%%%%%%%%%%%%%%%%%%%%%%%******$$$$$$$$OOOO%%%%%%%%%%%%%%%%%%",
"%%%%%%%%%%%%%%%%%%%%%%%%%%%%%%%%%%%%%%%%%%%%%%%%%%%%%%%%%%%%%%%%%%%%%%%%%%%%%%%%%%%%%%%%%%%%******$$$$$$$$OOOO%%%%%%%%%%%%%%%%%%",
"%%%%%%%%%%%%%%%%%%%%%%%%%%%%%%%%%%%%%%%%%%%%%%%%%%%%%%%%%%%%%%%%%%%%%%%%%%%%%%%%%%%%%%%%%%%%%%%%****$$$$$$$$OOOO%%%%%%%%%%%%%%%%",
"%%%%%%%%%%%%%%%%%%%%%%%%%%%%%%%%%%%%%%%%%%%%%%%%%%%%%%%%%%%%%%%%%%%%%%%%%%%%%%%%%%%%%%%%%%%%%%%%****$$$$$$$$OOOO%%%%%%%%%%%%%%%%",
"%%%%%%%%%%%%%%%%%%%%%%%%%%%%%%%%%%%%%%%%%%%%%%%%%%%%%%%%%%%%%%%%%%%%%%%%%%%%%%%%%%%%%%%%%%%%%%%%%%****$$$$$$$$OOOO%%%%%%%%%%%%%%",
"%%%%%%%%%%%%%%%%%%%%%%%%%%%%%%%%%%%%%%%%%%%%%%%%%%%%%%%%%%%%%%%%%%%%%%%%%%%%%%%%%%%%%%%%%%%%%%%%%%****$$$$$$$$OOOO%%%%%%%%%%%%%%",
"%%%%%%%%%%%%%%%%%%%%%%%%%%%%%%%%%%%%%%%%%%%%%%%%%%%%%%%%%%%%%%%%%%%%%%%%%%%%%%%%%%%%%%%%%%%%%%%%%%%%******$$$$$$OOOO%%%%%%%%%%%%",
"%%%%%%%%%%%%%%%%%%%%%%%%%%%%%%%%%%%%%%%%%%%%%%%%%%%%%%%%%%%%%%%%%%%%%%%%%%%%%%%%%%%%%%%%%%%%%%%%%%%%******$$$$$$OOOO%%%%%%%%%%%%"
};
