/* XPM */
static char *dc1d485d35d64e43e85399269ff8c4dduV8cTOJ1l1CcRan2[] = {
/* columns rows colors chars-per-pixel */
"64 64 12 1 ",
"  c black",
". c #703B24",
"X c #FC000D",
"o c #ED1C24",
"O c #B5A872",
"+ c #404AC9",
"@ c gray58",
"# c #BFBDBF",
"$ c #D9C989",
"% c #F5E49C",
"& c gray84",
"* c #F7EDC6",
/* pixels */
"%%%%%%%%%%%%%%%%%%%%%%%%%%%%%%%%%%%%%%%%%%%%%%%%%%%%**$$OO%%%%%%",
"%%%%%%%%%%%%%%%%%%%%%%%%%%%%%%%%%%%%%%%%%%%%%%%%%%%%%*$$$O%%%%%%",
"%%%%%%%%%%%%%%%%%%%%%%%%%%%%%%%%%%%%%%%%%%%%%%%%%%%%%**$$OO%%%%%",
"%%%%%%%%%%%%%%%%%%%%%%%%%%%%%%%%%%%%%%%%%%%%%%%%%%%%%%*$$$OO%%%%",
"%%%%%%%%%%%%%%%%%%%%%%%%%%%%%%%%%%%%%%%%%%%%%%%%%%%%%%**$$$OO%%%",
"%%%%%%%%%%%%%%%%%%%%%%%%%%%%%%%%%%%%%%%%%%%%%%%%%%%%%%%*$$$$OO%%",
"OOOO%%%%%%%%%%%%%%%%%%%%%%%%%%%%%%%%%%%%%%%%%%%%%%%%%%%**$$$$OOO",
"$$$OOO%%%%%%%%%%%%%%%%%%%%%%%%%%%%%%%%%%%%%%%%%%%%%%%%%%**$$$$$O",
"$$$$$OOO%%%%%%%%%%%%%%%%%%%%%%%%%%%%%%%%%%%%%%%%%%%%%%%%%**$$$$$",
"***$$$$OO%%%%%%%%%%%%%%%%%%%%%%%%%%%%%%%%%%%%%%%%%%%%%%%%%****$$",
"*%*$$$$$OO%%%%%%%%%%%%%%%%%%%%%%%%%%%%%%%%%%%%%%%%%%%%%%%%%%%***",
"%%***$$$$OO%%%%%%%%%%%%%%%%%%%%%%%%%%%%%%%%%%%%%%%%%%%%%%%%%%%%%",
"%%%%**$$$$OO%%%%%%%%%%%%%%%%%%%%%%%%%%%%%%%%%%%%%%%%%%%%%%%%%%%%",
"%%%%%**$$$$OO%%%%%%%%%%%%%%%%%%%%%%%%%%%%%%%%%%%%%%%%%%%%%%%%%%%",
"%%%%%%**$$$$OO%%%%%%%%+++++++++++++++++++++%%%%%%%%%%%%%%%%%%%%%",
"%%%%%%%**$$$$OOO%%%%%%+++++++++++++++++++++%%%%%%%%%%%%%%%%%%%%%",
"%%%%%%%%**$$$$$OOO%%%%+++++++++++++++++++++%%%%%%%%%%%%%%%%%%%%%",
"%%%%%%%%%***$$$$$OOOOO+++++++++++++++++++++%%%%%%%%%%%%%%%%%%%%%",
"%%%%%%%%%%%**$$$$$$$$O+++++++++++++++++++++%%%%%%%%%%%%%%%%%%%%%",
"%%%%%%%%%%%%****$$$$$$+++++++++++++++++++++%%%%%%%%%%%%%%%%%%%%%",
"%%%%%%%%%%%%%%%****$$$#$$$$OOOOOOOO$$$$$$O#OOO%%%%%%%%%%%%%%%%%%",
"%%%%%%%%%%%%%%%%%%****#$$$$$$$$$$$$$$$$$$$#$$OOO%%%%%%%%%%%%%%%%",
"%%%%%%%%%%%%%%%%%%%%%%#***$$$$$$$$$$$***$$#$$$$OOO%%%%%%%%%%%%%%",
"%%%%%%%%%%%%%%%%%%%%%%#%%*************%***#*$$$$$O%%%%%%%%%%%%%%",
"%%%%%%%%%%%%%%++++##%%+++++++++++++++++++++**##++++O%%%%%%%%%%%%",
"%%%%%%%%%%%%%%++++%##+++++++++++++++++++++++##*++++OOO%%%%%%%%%%",
"%%%%%%%%%%%%%%++++%%%+++++++++++++++++++++++%%*++++$$OO%%%%%%%%%",
"%%%%%%%%%%%%%%++++%%%+++++++ +++++++++ +++++%%%++++$$$OO%%%%%%%%",
"%%%%%%%%%%%%%%++++%%#++++++ +++++++++ ++++++#%%++++$$$$OO%%%%%%%",
"%%%%%%%%%%%%%%++++%##+++++ +++++++++ +++++++##%++++*$$$$OO%%%%%%",
"%%%%%%%%%%%%%%++++##%++++ +++++++++ ++++++++%##++++**$$$$OO%%%%%",
"%%%%%%%%%%%%%%++++##%+++             +++++++%##++++%**$$$$OOO%%%",
"%%%%%%%%%%%%%%++++%%%++++    +++    ++++++++%%%++++%%**$$$$$OO%%",
"%%%%%%%%%%%%%%++++%%%+++++  +++++  +++++++++%%%++++%%%***$$$$OO%",
"OOOO%%%%%%XXX%++++%%%+++++++++++++++++++++++%%%++++%%%%%**$$$$OO",
"$$$O%%%%%%&.&%+@@+%%%+++++++++++++++++++++++%%%++++%%%%%%***$$$$",
"$$$OO%%%%%&.&%+@@+%%%+++++++++++++++++++++++%%%++++%%%%%%%%**$$$",
"*$$$OO%%%%&.&%+@@+%%%+++++++++++++++++++++++%%%++++%%%%%%%%%****",
"*$$$$OO%%&...&+@@+%%%+++++++++++++++++++++++%%%++++%%%%%%%%%%%%%",
"***$$$OOO&...&++++%%%+++++++++++++++++++++++%%%++++%%%%%%%%%%%%%",
"%%*$$$$$O&ooo&++++%##+++++++++++++++++++++++##%++++%%%%%%%%%%%%%",
"%%***$$$$&ooo&++++##%%+++++++++++++++++++++%%##++++%%%%%%%%%%%%%",
"%%%%**$$$&...&%%%%%%%###%%%%%%%%%%%%%%%%%###%%%%%%%%%%%%%%%%%%%%",
"%%%%%***$&...&OOO%%%###%%%%%%%%%%%%%%%%%%%###%%%%%%%%%%%%%%%%%%%",
"%%%%%%%**&&&&&$$OOO###OO%%%%%%%%%%%%%%%%%%%###%%%%%%%%%%%%%%%%%%",
"%%%%%%%%%***$$$$$$###$OOOOOOO%%%%%%%%%%%%%%%###%%%%%%%%%%%%%%%%%",
"%%%%%%%%%%%****$$$###$$$$$$$OOOOOOO%%%%%%%%%###%%%%%%%%%%%%%%%%%",
"%%%%%%%%%%%%%********$$$$$$$$$$$$$OO%%%%%%%%%%%%%%%%%%%%%%%%%%%%",
"%%%%%%%%%%%%%%%%%%%%********$$$$$$$OOO%%%%%%%%%%%%%%%%%%%%%%%%%%",
"%%%%%%%%%%%%%%%%%%%%%%%%%%%*****$$$$$OOO%%%%%%%%%%%%%%%%%%%%%%%%",
"%%%%%%%%%%%%%%%%%%%%%%%%%%%%%%%***$$$$$OO%%%%%%%%%%%%%%%%%%%%%%%",
"%%%%%%%%%%%%%%%%%%%%%%%%%%%%%%%%%***$$$$OO%%%%%%%%%%%%%%%%%%%%%%",
"%%%%%%%%%%%%%%%%%%%%%%%%%%%%%%%%%%%**$$$$O%%%%%%%%%%%%%%%%%%%%%%",
"%%%%%%%%%%%%%%%%%%%%%%%%%%%%%%%%%%%%**$$$OOOO%%%%%%%%%%%%%%%%%%%",
"%%%%%%%%%%%%%%%%%%%%%%%%%%%%%%%%%%%%%**$$$$OOOO%%%%%%%%%%%%%%%%%",
"%%%%%%%%%%%%%%%%%%%%%%%%%%%%%%%%%%%%%%**$$$$$$OOO%%%%%%%%%%%%%%%",
"%%%%%%%%%%%%%%%%%%%%%%%%%%%%%%%%%%%%%%%**$$$$$$$OO%%%%%%%%%%%%%%",
"%%%%%%%%%%%%%%%%%%%%%%%%%%%%%%%%%%%%%%%%****$$$$$OO%%%%%%%%%%%%%",
"%%%%%%%%%%%%%%%%%%%%%%%%%%%%%%%%%%%%%%%%%%%***$$$$OOO%%%%%%%%%%%",
"%%%%%%%%%%%%%%%%%%%%%%%%%%%%%%%%%%%%%%%%%%%%%**$$$$$OO%%%%%%%%%%",
"%%%%%%%%%%%%%%%%%%%%%%%%%%%%%%%%%%%%%%%%%%%%%%***$$$$OO%%%%%%%%%",
"%%%%%%%%%%%%%%%%%%%%%%%%%%%%%%%%%%%%%%%%%%%%%%%%**$$$$OO%%%%%%%%",
"%%%%%%%%%%%%%%%%%%%%%%%%%%%%%%%%%%%%%%%%%%%%%%%%%**$$$$OO%%%%%%%",
"%%%%%%%%%%%%%%%%%%%%%%%%%%%%%%%%%%%%%%%%%%%%%%%%%%***$$$OO%%%%%%"
};
